<?xml version="1.0" encoding="utf-8"?>
<!-- Generator: Adobe Illustrator 28.1.0, SVG Export Plug-In . SVG Version: 6.00 Build 0)  -->
<svg version="1.1" id="Capa_1" xmlns="http://www.w3.org/2000/svg" xmlns:xlink="http://www.w3.org/1999/xlink" x="0px" y="0px"
	 viewBox="0 0 800 800" style="enable-background:new 0 0 800 800;" xml:space="preserve">
<style type="text/css">
	.st0{fill-rule:evenodd;clip-rule:evenodd;fill:#FFC561;}
	.st1{fill-rule:evenodd;clip-rule:evenodd;fill:#FFAF36;}
	.st2{fill-rule:evenodd;clip-rule:evenodd;fill:#F84E09;}
	.st3{fill-rule:evenodd;clip-rule:evenodd;fill:#F2E9D4;}
	.st4{fill-rule:evenodd;clip-rule:evenodd;fill:#2D2B2B;}
</style>
<g>
	<path class="st0" d="M433.61,351.98c54.66-16.54,108.77,18.16,123.46,67.61c16.55,55.72-16.98,110.03-67.69,124.79
		c-55.59,16.18-110.02-17.24-124.5-68.11C348.75,419.63,382.29,367.51,433.61,351.98L433.61,351.98z M164.11,443.76
		c88.11,34.57,125.16,143.08,72.58,230.2c-8.65,14.33-13.84,17.08-21.91,27.54c23.02,6.17,103.2,0.35,129.21-3.4
		c90.1-12.98,176.25-39.27,255.16-83.09c25.45-14.13,49.47-29.99,71.45-48.12c8.37-6.9,12.68-12.44,25.5-15.6L461.19,246.96
		c-3.76-4.79-13.47-15.64-15.88-20.41l-18.62,22.91c-38.96,41.01-102.67,54.91-154.89,32.53c-35.1-15.04-41.75-29.28-48.19-32.02
		c-1.14,4.24-2.28,7.41-3.44,11.76l-40.96,133.32c-1.49,4.4-2.27,7.83-3.78,12.22l-7.47,24.49
		C166.52,435.89,165.51,439.78,164.11,443.76L164.11,443.76z"/>
	<path class="st1" d="M696.11,551.29c-12.82,3.16-17.13,8.7-25.5,15.6c-21.98,18.13-46,33.99-71.45,48.12
		c-78.91,43.82-165.06,70.11-255.16,83.09c-26.01,3.75-106.19,9.56-129.21,3.4c-15.17,0.57-50.67-7.11-64.29-11.14
		c-10.43-3.09-19.92-5.97-29.36-10.12c-11.04-4.86-16.13-8.36-32.53-4.88c-25.67,13.52-25.14,43.09,0.58,56.2l10.28,4.51
		c70.66,28.37,157.81,32.91,233.49,23.47c10.51-1.31,32.88-3.45,43.3-5.64c5.05-1.06,10.32-2.4,15.36-3.3l58.4-12.55l42.08-12.23
		c36.34-9.78,101.48-39.75,134.01-57.3l41.49-25.09c9.25-6.19,46.55-32.85,54.99-42.71c12.88-15.03,8.58-34.79-3.74-43.91
		C713.76,553.06,704.58,549.08,696.11,551.29L696.11,551.29z"/>
	<path class="st2" d="M223.62,249.97c6.43,2.75,13.09,16.98,48.19,32.02c52.22,22.38,115.93,8.48,154.89-32.53l18.62-22.91
		c-9.55-12.86-28.21-34.66-36.44-46.88c-7.1-10.54-28.72-35.72-36.3-46.81c-8.03-11.76-27.61-34.43-36.3-46.82
		c-5.92-8.44-11.88-15.36-17.97-23.12c-1.56-1.99-2.52-3.7-4.2-5.95c-1.74-2.33-3.01-3.78-4.84-6.08
		c-11.67-14.68-16.95-22.66-23.26-3.9l-31.96,104.68c-1.62,4.72-3.07,9.23-4.36,14.04c-1.28,4.79-2.97,9.6-4.41,14.01
		c-1.53,4.69-2.67,9.45-4.2,14.14c-3.01,9.22-5.51,18.57-8.77,28.05L223.62,249.97L223.62,249.97z"/>
	<path class="st2" d="M433.61,351.98c-51.31,15.52-84.86,67.64-68.73,124.28c14.48,50.87,68.91,84.3,124.5,68.11
		c50.71-14.76,84.24-69.07,67.69-124.79C542.38,370.14,488.26,335.45,433.61,351.98L433.61,351.98z"/>
	<path class="st2" d="M88.6,675.35c16.4-3.48,21.49,0.02,32.53,4.88c9.44,4.15,18.94,7.04,29.36,10.12
		c13.62,4.03,49.12,11.71,64.29,11.14c8.07-10.46,13.26-13.21,21.91-27.54c52.59-87.11,15.53-195.62-72.58-230.2
		c-2.79,11.9-7.41,23.84-10.84,35.67c-0.88,3.02-1.42,4.77-2.26,7.33l-26.43,86.27c-1.74,4.95-2.85,9.57-4.43,14.73
		c-1.47,4.79-3.19,9.42-4.44,13.99l-13.32,43.43c-3.04,9.88-5.98,19.15-8.74,28.8L88.6,675.35L88.6,675.35z"/>
	<path class="st3" d="M241.54,454.01c2.31-0.98,7-4.92,10.09-6.86c3.85-2.42,7.71-4.22,12.18-6.05c0.61-5.15-1.73-20.33-2.06-27.04
		c-0.91-18.93-0.41-58.6,12.65-69.49c7.94-6.62,15.58,0.69,19.45,6.42c4.54,6.74,7.9,16.18,10.22,24.5
		c5.85,20.92,6.43,37.1,8.81,57.75l21.24,1.95c3.03-5.08,2.97-36.21,2.56-44.98c-1.39-30.22-9.31-71.33-28.34-95.3
		C264.44,239.61,212.97,340.69,241.54,454.01L241.54,454.01z"/>
	<path class="st3" d="M393.21,419.77l17.27-9.16c0.72-2.19,0.36,0.34,0.26-2.8l-2.49-25.22c-0.46-8.81-0.46-17.79,0.16-26.36
		c4.26-58.2,30.55-62.95,45.66-14.4c6.48,20.79,7.41,37.76,9.47,58.58c4.21-0.09,8.13-0.05,12.28,0.24
		c3.98,0.28,8.63,1.48,12.13,1.46c2.27-8.13-0.7-36.22-2.13-46.31c-2.3-16.22-7.04-33.75-13-48.66
		c-31.92-79.89-83.91-62.64-90.92,16.48C378.87,358.04,383.07,384.66,393.21,419.77L393.21,419.77z"/>
	<path class="st4" d="M393.21,419.77c-10.14-35.11-14.34-61.73-11.29-96.16c7.01-79.12,59-96.36,90.92-16.48
		c5.96,14.91,10.7,32.43,13,48.66c1.43,10.1,4.4,38.18,2.13,46.31c-3.5,0.02-8.15-1.18-12.13-1.46c-4.15-0.29-8.07-0.33-12.28-0.24
		c-2.06-20.82-3-37.78-9.47-58.58c-15.12-48.54-41.4-43.8-45.66,14.4c-0.63,8.58-0.62,17.55-0.16,26.36l2.49,25.22
		c0.1,3.14,0.46,0.61-0.26,2.8L393.21,419.77L393.21,419.77z M376.1,385.85l3.6,17.02c2.23,10.56,5.48,17.53,7.63,27.72
		c8.36,3.36,4.49,1.66,12.89-4.82c15.73-12.15,52.81-17.53,72.48-16.97c17.62,0.5,23.02,8.75,23.84-2.49
		c3.62-49.65-13.76-136.01-58.34-156.41c-25.12-11.49-43.02,5.99-53.29,27.91C371.72,305.94,369.2,353.2,376.1,385.85L376.1,385.85z
		"/>
	<path class="st4" d="M241.54,454.01c-28.57-113.31,22.9-214.4,66.81-159.1c19.03,23.97,26.95,65.08,28.34,95.3
		c0.4,8.77,0.47,39.9-2.56,44.98l-21.24-1.95c-2.38-20.65-2.96-36.84-8.81-57.75c-2.32-8.32-5.68-17.76-10.22-24.5
		c-3.87-5.73-11.51-13.04-19.45-6.42c-13.06,10.89-13.56,50.56-12.65,69.49c0.32,6.71,2.66,21.89,2.06,27.04
		c-4.47,1.84-8.33,3.64-12.18,6.05C248.54,449.08,243.86,453.02,241.54,454.01L241.54,454.01z M230.22,444.22
		c1.13,5.37,4.42,22.18,10.63,20.87c7.21-1.52,20.5-25.5,71.83-23.53c31.27,1.2,28.92,11.35,31.66-16.21
		c4.28-42.94-4.32-122.97-42.92-147.97c-4.28-2.77-4.63-3.55-9.99-4.94c-22.88-5.94-39.03,10.73-48.45,29.63
		C222.49,343.12,220.69,399.1,230.22,444.22L230.22,444.22z"/>
	<path class="st4" d="M324.85,551.36c3.53,16.7,19.5,35.28,37.13,41.03c29.81,9.72,59.31-12,70.51-40.64
		c1.23-3.14,10.56-25.36-0.43-23.04c-3.71,0.78-5.22,13.01-6.34,16.42c-5.07,15.48-19.82,35.33-37.07,38.97
		c-15.23,3.22-27.6,2.28-39.03-8.8c-4.28-4.15-7.21-7.26-10.6-13.03c-4.71-8.02-5.05-15.51-10.46-14.37
		C326.58,548.33,326.27,549.85,324.85,551.36L324.85,551.36z"/>
	<path class="st4" d="M333.04,489.18c2.05,9.7,5.49,13.91,14.41,18.45c8.67,4.42,26.56,3.48,31.88-1.55
		c3.4-3.21,0.48-5.55-1.67-7.65c-4.97,1.05-5.76,2.11-10.03,3.01c-8.99,1.9-23.32-0.98-25.72-12.35
		c-3.21-15.18,18.62-27.21,33.99-22.89c2.16,0.61,3.93,1.87,6.09,1.49c2.03-0.35,3.83-2.14,3.12-5.51
		c-1.44-6.82-30.54-9.87-44.96,6.68C336.29,473.3,331.42,481.48,333.04,489.18L333.04,489.18z"/>
</g>
</svg>
