<?xml version="1.0" encoding="utf-8"?>
<!-- Generator: Adobe Illustrator 28.1.0, SVG Export Plug-In . SVG Version: 6.00 Build 0)  -->
<svg version="1.1" id="Layer_1" xmlns="http://www.w3.org/2000/svg" xmlns:xlink="http://www.w3.org/1999/xlink" x="0px" y="0px"
	 viewBox="0 0 2426.38 1343.84" style="enable-background:new 0 0 2426.38 1343.84;" xml:space="preserve">
<style type="text/css">
	.st0{fill-rule:evenodd;clip-rule:evenodd;}
	.st1{fill-rule:evenodd;clip-rule:evenodd;fill:#F8D54A;}
</style>
<path class="st0" d="M1486.56,1257.17l7.15-17.44l-1.78-1.69c0,0-0.17,0.05-0.5,0.17c-0.07,0.15-0.24,0.33-0.58,0.44l-0.36-0.8
	l0.14-0.97c-0.39-0.33-0.67-0.61-0.91-0.82c-0.3-0.24-0.55-0.57-0.84-1.1c-0.3-0.36-0.57-0.52-0.86-0.51
	c-0.14,0.01-0.27-0.02-0.41-0.1l0.4-0.78c0.14,0.15,0.21,0.31,0.22,0.49l2.45,1.22c0.17,0.07,0.3,0.23,0.31,0.48
	c0.04,0.2,0.11,0.34,0.34,0.43c0.64,0.24,0.89,0.45,0.78,0.65l0.87,0.63l0.07,1.35l0.88,0.33l2.83-6.9l10.2,24.91H1486.56z
	 M1456.28,1289.32h6.08c0.06-0.05,0.11-0.1,0.14-0.16c0.09-0.18,0.42-0.2,0.92-0.03c0.2-0.42,0.42-0.69,0.62-0.76
	c0.13-0.1,0.32-0.31,0.52-0.73c0.11-0.24,0.04-0.41-0.17-0.49l0.82-0.84l1.09-0.39l1.11-2.29l0.42,0.15
	c0.52-0.58,1.08-1.07,1.61-1.5h-0.34l0.75-1.13v0.7c0.32-0.37,0.62-0.79,0.85-1.27c0.53-1.08,1.19-2.11,1.87-3
	c0.75-0.86,1.47-2.01,2.09-3.28l0.13-0.01c-0.11-0.28-0.16-0.6-0.16-0.95v-0.97l0.76-0.98c0.49,0.43,0.74,1,0.75,1.74l1.05-2.16
	c0.72-0.3,1.35-0.58,1.76-0.92c0.49,0.18,0.62,0.58,0.3,1.24c-0.32,0.66-0.94,1.07-1.91,1.22l-0.18,0.36c-0.2,0.42-0.87,1.46-2,3.1
	c-1.06,1.67-1.98,2.54-2.58,2.61c0.07,0.52-0.16,1-0.5,1.52c-0.4,0.49-0.71,0.95-0.94,1.43c-0.32,0.66-0.38,1.13-0.26,1.39
	c-0.44,0.41-1.07,0.68-1.76,0.92l-0.85,0.9l-1.09,0.38c-0.2,0.92-0.86,1.74-2.03,2.31l-0.17,0.36c-0.21,0.42-0.28,0.75-0.33,1.01
	c0.01,0.16-0.01,0.33-0.06,0.52h8.92l1.32-3.25c-0.44-0.4-0.64-1.12-0.61-2.09l-0.42-0.15c-0.49-0.18-0.97-0.21-1.29-0.04
	c-0.37,0.08-0.54-0.06-0.59-0.64l0.5-0.17l0.27,0.45l1.68,0.25l-0.15,0.3l1.12,0.4l0.06,0.29l5.13-12.58H1513l7.02,17.23h4.83
	l-0.4-0.89c0.45-0.52,0.96-0.68,1.53-0.48c0.63,0.21,1.05,0.68,1.25,1.38h10.46l-22.18-52.11l-0.85,0.28
	c-0.64-0.24-1.19-0.39-1.76-0.37c-0.51,0.05-0.97,0-1.38-0.16c-0.65,0.18-1.1,0.37-1.48,0.58c-0.3,0.18-0.78,0.31-1.27,0.3
	c-0.16-0.24,0.12-0.5,0.7-0.69c0.93-0.73,1.54-0.98,1.93-0.77c0.35,0.25,0.81,0.18,1.33-0.28l1.87,0.7l0.58-0.38l-10.41-24.46h-8.72
	l1.06,0.62v3.14l0.22-0.43c0.11-0.07,0.2-0.18,0.28-0.33l0.13-0.25l0.36,0.79c-0.07,0.15-0.21,0.28-0.38,0.34
	c-0.17,0.05-0.3,0.18-0.38,0.34l-0.23,0.02v0.6l-0.16-0.59l-0.09,0.01l0.06-0.12l-1.14-4.15h-2.94v0.13h-1.01v-0.13h-2.63
	l-26.1,61.34l1.22,0.85c-0.51,0.76-0.76,1.25-0.76,1.46l0.13,0.33l-0.26,0.16c-0.17,0-0.54-0.32-1.12-0.97l-2.29,5.38l0.14-0.18
	c0.33,0.22,0.61,0.57,0.82,1.06c0.21,0.49,0.37,1.03,0.5,1.62c0.12,0.6,0.23,1.17,0.32,1.71c0.08,0.54,0.2,0.92,0.37,1.14h0.13
	l-2.64-4.5L1456.28,1289.32z M1408.75,1289.32h16.9v-76.8h-9.37l-0.22,0.53c-0.38-0.02-0.6,0.09-0.67,0.27l-0.07,0.16l-0.68-0.21
	l0.41-0.06l0.27-0.25c-0.01-0.12,0.01-0.27,0.05-0.45h-6.62v36.57l0.48-0.62l1.38,1.63c-0.67,0.54-1.05,0.81-1.13,0.81h-0.25
	c-0.2-0.3-0.36-0.55-0.48-0.75v8.67l1.23-1.74v1.13c0,0.87-0.25,1.41-0.75,1.63l-0.48-0.61v5.87l0.48-0.87v1.14h-0.48V1289.32z
	 M1327.54,1249.82v-22.05h16.79c3.5,0,6.42,0.67,8.63,2.01h0.15v0.1c2,1.26,3.39,3.07,4.05,5.43c0.12-0.32,0.33-0.53,0.6-0.66
	c0.42,0.22,0.63,0.82,0.63,1.79v0.65l-0.63,0.97c-0.06-0.04-0.12-0.09-0.18-0.14c0.02,0.27,0.02,0.54,0.02,0.81v0.22
	c0,6.47-4.72,10.86-12.95,10.86H1327.54z M1310.64,1289.32h16.9v-24.58h2.76c-0.71-0.51-1.07-1.4-1.07-2.68
	c0-2.28-0.21-3.69-0.62-4.23c-0.51,0.65-0.76,1.36-0.76,2.11c0,0.33,0.25,0.9,0.76,1.71c0.47,0.76,1.13,1.8,1.97,3.09h10.23
	l3.14,4.69c0.03-0.07,0.07-0.14,0.12-0.21c0.25-0.43,0.59-0.92,1.01-1.46h0.76c0.08,0.11,0.12,0.22,0.12,0.33c0,0.11,0,0.22,0,0.33
	c0,0.47-0.38,1.24-1.16,2.29l1.51,2.26h0.02h0.38c0.67,0,1.05,0.33,1.13,0.98l-0.47,0.61l9.9,14.78h17.85l0.5-1.21l0.19,0.06
	c0.09,0.03,0.12,0.13,0.03,0.34l-0.06,0.13l0.19,0.06c0.05,0.13,0.03,0.34-0.08,0.63h1.13l-7.82-11.43
	c0.01,0.08,0.02,0.17,0.02,0.26v1.95l-0.76,0.98c-0.5-0.43-0.75-1.19-0.75-2.28c0-0.54,0.06-1,0.19-1.38
	c0.1-0.32,0.25-0.58,0.45-0.78l-10.09-14.75c9.76-3.62,16.46-11.41,16.46-23.81v-0.22c0-4.1-0.74-7.82-2.16-11.05
	c-0.64-0.13-0.97-0.72-0.97-1.76l0-0.17c-0.95-1.69-2.11-3.22-3.46-4.58c-0.49-0.49-1.01-0.96-1.55-1.41l-0.15,0.3l-1.38-0.98
	c0.07-0.12,0.14-0.24,0.2-0.35c-4.89-3.49-11.45-5.36-19.51-5.36h-7.31c-0.02,0.06-0.05,0.12-0.08,0.18l-0.14,0.3
	c-0.19-0.07-0.24-0.24-0.16-0.48h-2.13c-0.31,0.08-0.64,0.2-0.97,0.42l-0.31-0.11c0-0.08,0.02-0.19,0.06-0.31h-24.08V1289.32z
	 M1224.31,1212.52h-5.19v3.06c0.09-0.03,0.18-0.05,0.28-0.07l0.26-0.53l0.4,0.14l0.17-0.35l0.48-0.01l0.24-0.5l0.37,0.13l0.48-0.46
	l0.26-0.09c0.17-0.35,0.41-0.48,0.66-0.39l0.22,0.08l0.32-0.66c0.11,0.04,0.21,0.01,0.28-0.12c0.06-0.12,0.22-0.1,0.48-0.01
	l0.22,0.08C1224.26,1212.71,1224.28,1212.61,1224.31,1212.52z M1219.12,1289.32h9.08c-0.28-0.38-0.42-0.86-0.42-1.43
	c0-0.87,0.25-1.52,0.75-1.95c0.51,0.43,0.76,1.03,0.76,1.78v0.98l-0.48,0.62h48.79v-15.03h-41.69v-16.13h36.21v-15.03h-14.08
	l-0.13,0.11v-0.11h-4.79c0.01,0.19,0.01,0.39,0.01,0.6v3.09c-0.42-1.62-0.73-2.82-0.94-3.58l-0.03-0.11h-16.24v-1.83
	c-0.08-0.06-0.18-0.15-0.33-0.25c-0.37-0.27-0.9-0.73-1.57-1.38c0-0.54,0.23-1.08,0.7-1.62c0.42-0.5,0.83-1.04,1.21-1.63v-3.95
	c-0.12-0.22-0.23-0.4-0.33-0.53c-0.12-0.16-0.19-0.3-0.19-0.41v-0.49h0.25c0.06,0,0.15,0.04,0.26,0.13v-3.63h15.78l0.05-0.08
	l0.03,0.08h25.28v-15.03h-35.77c0.26,0.78,0.39,1.75,0.39,2.92c0,0.22,0,0.43,0,0.65c0,0.22-0.04,0.43-0.12,0.65
	c-0.67,0.76-1.05,1.14-1.13,1.14c-1.18,0-1.76-1.36-1.76-4.07c0-0.33,0-0.66,0-0.98c0-0.1,0-0.21,0.01-0.32h-7.53l-0.17,0.36
	c-0.4,0.07-0.78,0.06-1.15-0.08l-0.77-0.28h-3.3l-0.01,0.03l-0.57,0.2c-0.25-0.09-0.44-0.08-0.48,0.01
	c-0.05,0.12-0.21,0.18-0.53,0.21l-0.41,0.85c-0.14-0.05-0.75,0.21-1.8,0.79c-1.04,0.55-1.61,0.93-1.74,1.19l-0.08,0.16
	c-0.23-0.23-0.32-0.23-0.37-0.02c0,0.18-0.16,0.24-0.41,0.15l-0.18-0.07l-0.03,0.06v18.11c0.03,0,0.06,0.01,0.08,0.02
	c0.26,0.09,0.34,0.19,0.22,0.26c-0.14,0.1-0.06,0.2,0.2,0.3l0.22,0.08l0.47-0.04l-0.34,0.69c-0.27-0.08-0.42-0.06-0.47,0.04
	l-0.08,0.16c0.16,0.06,0.28,0.13,0.35,0.2l-0.25,0.51c-0.16-0.15-0.24-0.3-0.22-0.46c-0.01-0.15-0.07-0.32-0.18-0.5V1289.32z
	 M1121.13,1289.32h31.2c0-0.05,0-0.17-0.01-0.38c0.05-0.09,0.13-0.17,0.23-0.21c0.1-0.03,0.14-0.1,0.2-0.22
	c-0.06,0.12-0.06,0.2-0.02,0.29c0.04,0.09,0.03,0.2-0.02,0.29c-0.05,0.1-0.15,0.18-0.28,0.23h17.82l0.18-0.17l0.5,0.17h14.15v-14.81
	h-5.52c0.03,0.1,0.13,0.17,0.28,0.23l0.31,0.12l-0.4,0.79c-0.58,0.02-0.9,0.09-0.97,0.22c-0.09,0.19-0.65,0.09-1.7-0.31
	c-0.69-0.26-1.09-0.49-1.32-0.72c-0.22,0.18-0.53,0.28-0.84,0.28c-0.32,0.03-0.56,0.16-0.67,0.38l-0.35,0.69l-0.4-0.15l-0.51,0.59
	c0.11,0.04,0.13,0.16,0.04,0.35c-0.08,0.15-0.2,0.22-0.31,0.18l-0.21-0.08l-0.08,0.16c-0.13,0.25-0.15,0.39-0.11,0.48
	c0.04,0.09,0.05,0.17-0.02,0.29c0,0-0.11,0.03-0.31,0.1l-0.3-0.34c-0.11-0.04-0.29-0.03-0.49,0.04c-0.22,0.44-0.48,0.68-0.79,0.71
	c-0.18,0.34-0.43,0.51-0.75,0.54c-0.26,0.17-0.55,0.39-0.83,0.69c-0.32,0.29-0.61,0.44-0.97,0.45l-0.17,0.34l-0.48,0.01l-0.61,0.78
	c-0.21,0.07-0.31,0.18-0.36,0.28c-0.07,0.12-0.24,0.13-0.49,0.04c-0.26,0.16-0.41,0.29-0.47,0.42c-0.07,0.13-0.19,0.19-0.36,0.27
	c0,0-0.01-0.15-0.05-0.42c0.06-0.13,0.15-0.21,0.28-0.3c0.12-0.07,0.22-0.18,0.28-0.3l0.26-0.09l0.49-0.45l0.26-0.09
	c0.38-0.42,0.86-0.76,1.5-1.08c0.63-0.28,1.08-0.75,1.36-1.31l0.48-0.01l0.1-0.19c0.37-0.12,0.72-0.48,1.01-1.04l0.48-0.01
	l0.35-0.69l0.5-0.04l0.16-0.31c0.12-0.25,0.15-0.47,0.1-0.71c-0.03-0.2,0-0.41,0.12-0.66c0.02-0.04,0.05-0.09,0.09-0.13h-3.22
	l0.1,0.04c0.4,0.15,0.73,0.35,0.97,0.67c0.24,0.28,0.56,0.51,0.96,0.66c-0.21,0.07-0.41,0.03-0.66-0.06
	c-0.55-0.21-0.85-0.36-0.94-0.54l-0.1-0.23c-0.25-0.1-0.51-0.19-0.72-0.2c-0.25-0.02-0.48-0.07-0.74-0.16l-0.29,0.08l-0.65-0.24
	h-5.69c0.04,0.06,0.14,0.1,0.29,0.12c0.29,0.03,0.35,0.17,0.24,0.39c0.4,0.15,0.72,0.38,0.96,0.66c0.27,0.32,0.6,0.53,0.96,0.66
	c0.29,0.11,0.52,0.16,0.76,0.21c0.21,0.01,0.4,0.15,0.56,0.51c-0.19,0.04-0.6,0.07-1.22,0.03c-0.61-0.01-1.05-0.06-1.31-0.16
	c-0.14-0.05-0.3-0.34-0.53-0.83l-1.6-0.6c0.32-0.29,0.3-0.59-0.02-0.9l-0.08-0.09h-17.87l35.05-40.79
	c-0.96-0.87-1.44-2.05-1.44-3.54c0-1.49,0.46-2.24,1.39-2.24c0.11,0,0.63,0.45,1.56,1.35v2.68l5.68-6.61v-2.34h-1.36v-1.79h1.36
	v-6.3c-0.13,1.37-0.69,2.05-1.7,2.05h-0.17c0.46-2.51,1.09-3.7,1.88-3.58v-0.87h-62.65v14.81h40.93l-42.24,49.15V1289.32z
	 M1028.26,1289.32h8.08c-0.45-1.2-0.63-2.02-0.54-2.44l0.21-0.16l0.21-0.16c0.34,0.12,0.75,0.72,1.24,1.82l-1.04,0.95h46.48
	c0.06-0.05,0.12-0.09,0.19-0.14c0.96-0.66,1.62-1.13,2.01-1.39c0.38-0.27,0.46-0.24,0.22,0.09c-0.16,0.53-0.32,1.01-0.48,1.44h5.66
	v-14.81h-8.65l-0.03,0l0,0h-33.55l4.89-5.69l-0.01-0.08l0.1-0.03l37.26-43.35v-12.84h-13.61c0.14,0.2,0.31,0.46,0.49,0.77
	l-0.89,0.53c-0.19-0.59-0.31-1.02-0.38-1.3h-3.35c-0.07,0.06-0.14,0.1-0.23,0.13c-0.17,0.05-0.3,0.18-0.37,0.33
	c-0.38,0.74-0.67,1.04-0.84,0.98l-0.35-0.13c-0.04,0.63-0.27,1.07-0.68,1.33l-0.28,0.54l-0.28-0.11c0.03,0.48-0.27,1.19-0.82,2.28
	c-0.1,0.2-0.09,0.32-0.03,0.46c0.06,0.14,0.04,0.31-0.03,0.46c0,0-0.21,0.15-0.62,0.41c0.13,0.28,0.31,0.47,0.48,0.54
	c0.23,0.09,0.45-0.07,0.62-0.42l0.16,0.36c-0.1,0.2-0.27,0.25-0.44,0.19c-0.23-0.09-0.3,0.06-0.28,0.54
	c-0.53-0.03-1.03,0.14-1.49,0.38c-0.52,0.22-1.04,0.43-1.64,0.67l-0.4,0.79c-0.46-0.18-0.78,0.05-1.03,0.55l-0.15,0.29l-0.76,0.01
	l-0.77,0.71c-0.25,0.08-0.52,0.21-0.74,0.37c0,0,0,0,0,0l0.85,1.36l-0.61-0.21c-0.41-0.14-0.7-0.41-0.87-0.82
	c-0.03,0.01-0.07,0.02-0.1,0.03c-0.07,0.15-0.23,0.32-0.42,0.43c-0.22,0.16-0.43,0.43-0.6,0.78c-0.22-0.5-0.24-0.86-0.14-1.06
	c0.21-0.42,0.6-0.77,1.19-1.05l0.09-0.45l0.19,0.32c0.01,0,0.02-0.01,0.02-0.01c0.74-0.25,1.23-0.54,1.41-0.88l0.15-0.3
	c0.48,0,0.86-0.21,1.03-0.55c0.18-0.34,0.5-0.58,1.03-0.55c0.38-0.74,0.66-1.17,0.99-1.27c0.41-0.26,0.75-0.66,1.02-1.21
	c0.83-1.63,1.33-2.62,1.59-3.1c0.08-0.17,0.28-0.37,0.58-0.62l-0.58-0.2l-0.05-0.36c0.02-0.1,0.36-0.49,1.02-1.16l0.09,1.36
	c0.48-0.35,1.13-0.77,1.93-1.24l0.46-0.9h-18.62l0.23,0.25c-0.11,0.61-0.25,1.03-0.49,1.23c-0.27,0.25-0.47,0.65-0.74,1.19
	l0.01,0.65l-1.03,0.55l0.55-1.08c0.53-1.04,0.73-1.96,0.6-2.66l-0.02-0.13h-24.69v14.81h12.78c-0.06-0.09-0.1-0.18-0.15-0.28
	c0.53-0.49,1.24-0.58,2.13-0.28c0.66,0.23,1.17,0.42,1.53,0.56h11.61l-0.18-0.07c-1.27-0.47-2.49-0.76-3.67-0.85
	c-1.16-0.14-2.32-0.28-3.49-0.55c-0.63-0.65-1.16-1.09-1.56-1.24l-0.5,0.17l-0.63-0.24c-0.17-0.06-0.79-0.06-1.71,0.12
	c-0.97,0.16-2.08,0.33-3.27,0.53c-0.86,0.14-1.72,0.31-2.56,0.52l0.45,0.7c-0.45,0.52-0.88,0.7-1.28,0.57
	c-0.39-0.14-0.61-0.42-0.65-0.87c-0.89,0.24-1.45,0.39-1.71,0.44c-0.11,0.09-0.22,0.18-0.33,0.27l0.72-1.41l0.92,0.04
	c0.56-0.15,0.94-0.24,1.18-0.19c0.17-0.11,0.26-0.17,0.26-0.17l0.21,0.24c0.45-0.25,1.34-0.59,2.67-0.96
	c1.46-0.45,2.48-0.71,3.09-0.95c0.18-0.35,0.37-0.45,0.55-0.27c0.12,0.17,0.26,0.16,0.36-0.04l0.13-0.25
	c-0.63-0.24-0.87-0.45-0.77-0.64c0.18-0.34,0.51-0.99,0.96-1.87c0.45-0.89,0.85-1.27,1.31-1.09c0.17,0.06,0.19,0.3,0.01,0.65
	l-0.83,1.63c0.4,0.15,0.56,0.38,0.36,0.78l0.16,0.36l0.76-0.01c0.56-0.03,1.41,0.18,2.68,0.66c1.26,0.47,2.13,0.92,2.66,1.35
	l1.35-0.49l0.34,0.13c0.17,0.06,0.26,0.16,0.21,0.26c-0.05,0.1,0.16,0.23,0.56,0.38c0.4,0.15,0.73,0.04,0.91-0.3
	c0.2-0.4,0.46-0.36,0.78-0.06l0.63,0.24c0.4,0.15,0.75,0.4,0.94,0.71c0.21,0.26,0.56,0.51,0.97,0.66c0.23,0.09,0.42-0.02,0.54-0.27
	c0.12-0.25,0.26-0.37,0.49-0.29l0.16,0.36l0.2,1.08c-0.04,0.08-0.03,0.16,0.05,0.24h5.22c-0.1-0.31-0.15-0.48-0.13-0.54l0.07-0.32
	l1.45,0.5l-0.22,0.35h2.23l-4.01,4.67c0.18,0.32,0.29,0.58,0.31,0.78l-0.63-0.24l-0.11-0.05l-8.56,9.96l0.23,0.09l-0.28,0.54
	c0,0-0.01-0.18-0.05-0.51l-3.52,4.1l0.44,0c0.81,0.28,1.27,0.77,1.38,1.48c-0.92-0.56-1.99-0.52-3.21,0.12l-24.23,28.2v12.64
	c0.57-0.24,1.06-0.46,1.39-0.74C1028.32,1288.52,1028.45,1288.83,1028.26,1289.32z M974.73,1289.32h10.43l-0.24-0.54l0.47,0.54h6.24
	v-64.99c-0.13-0.17-0.24-0.46-0.33-0.85l0.33-0.24v-10.72h-16.9V1289.32z M899.56,1251.25v-23.48h13.06c2.49,0,4.71,0.35,6.6,1.05
	c0.13-0.13,0.28-0.27,0.45-0.42l0.61,0.21l-0.07,0.32c-0.02,0.1-0.04,0.19-0.07,0.28c3.92,1.79,6.18,5.24,6.18,10.2v0.22
	c0,6.58-4.94,11.63-13.39,11.63H899.56z M987.78,1220.94l1.1,0.37l0.29-1.41l-1.09-0.38L987.78,1220.94z M987.39,1228.54
	c0.44,0.82,0.7,1.25,0.78,1.28l0.24,0.08l-0.25-1.94L987.39,1228.54z M982.42,1220.44c0.35,0.8,0.99,1.34,1.87,1.65
	c1.05,0.36,1.66-0.05,1.82-1.23l0.03-0.16l-1.94-0.67C983.54,1219.82,982.95,1219.95,982.42,1220.44z M985.48,1233.43l1.04-0.65
	l-1.14-2.07l-0.77,0.57L985.48,1233.43z M981.24,1233.84c0.11,0.71,0.37,1.14,0.78,1.28c0.49,0.16,0.92-0.02,1.29-0.57l-0.66-1.23
	l-0.24-0.08C982.32,1233.2,981.93,1233.4,981.24,1233.84z M984.45,1247.38l0.97,0.33l0.25-1.26l-0.97-0.33L984.45,1247.38z
	 M977.27,1239.88c0.36,1.58,1.08,2.55,2.14,2.92l0.67-0.1c-0.08-0.82-0.35-1.46-0.77-1.95c-0.42-0.48-0.89-0.75-1.39-0.81
	L977.27,1239.88z M1039.03,1220.16c0.19-0.05,0.48,0,0.88,0.13c0.16,0.06,0.36,0.18,0.57,0.37c0.23,0.19,0.44,0.4,0.65,0.64
	c0.21,0.23,0.43,0.45,0.65,0.64c0.22,0.19,0.41,0.3,0.58,0.36c0,0,0.03,0.01,0.11,0.04c0.09,0.03,0.26,0.03,0.52,0.01
	c0.48-0.62,0.76-1.15,0.84-1.56c0.05-0.21-0.05-0.35-0.29-0.44c-0.25-0.08-0.65-0.14-1.21-0.16c-0.56-0.02-0.92-0.06-1.08-0.12
	c-0.57-0.19-0.91-0.65-1.03-1.36c-0.71,0.54-1.11,0.97-1.17,1.28L1039.03,1220.16z M1049.31,1253.8l0.96-1.52l-0.25-0.09
	c-0.16-0.06-0.63,0.12-1.41,0.53L1049.31,1253.8z M1049.07,1278.45c0.62,0.77,0.97,1.17,1.05,1.2l0.24,0.09l-0.37-1.98
	L1049.07,1278.45z M1033.19,1271.62c0.6,1.13,1.01,1.74,1.24,1.82l0.33,0.11l-0.51-2.72L1033.19,1271.62z M1038.58,1285.52
	l1.34,0.46l0.35-1.73l-1.34-0.46L1038.58,1285.52z M984.26,1284.16l1.5,0.52l0.35-1.73l-1.51-0.52L984.26,1284.16z M979.89,1284.52
	l1.33-2.09l-0.34-0.12c-0.12-0.04-0.7,0.22-1.78,0.78L979.89,1284.52z M934.81,1249.74l1.1,0.37l0.25-1.26l-1.09-0.38
	L934.81,1249.74z M934.58,1256.56l0.36,0.12c0.08,0.03,0.21-0.02,0.36-0.13c0.15-0.11,0.37-0.23,0.66-0.36l-0.42-1.15
	c-0.57,0.7-0.87,1.1-0.89,1.21L934.58,1256.56z M905.77,1216.24l0.57,0.37c0.73,0.24,1.28,0.1,1.65-0.45
	c-0.52-0.85-0.86-1.3-1.02-1.36l-0.24-0.08c-0.55,0.6-0.85,1-0.89,1.21L905.77,1216.24z M901.33,1225.82l0.86,0.29l-0.26,1.26
	l-0.85-0.29L901.33,1225.82z M913.03,1263.98l0.28-0.07c0.16,0.06,0.46,0.5,0.9,1.32l1.08-1.48c-0.52-0.84-0.82-1.29-0.9-1.31
	l-0.4,0.03c-0.63,0.57-0.98,0.96-1.02,1.17L913.03,1263.98z M906,1259.55c0.21-0.15,0.52-0.21,0.95-0.18
	c0.42,0.03,0.88,0.05,1.35,0.04c0.48,0,0.93-0.07,1.35-0.21c0.42-0.14,0.75-0.39,1-0.75l-0.45-1l-4.23,2.25L906,1259.55z
	 M1259.98,1287.96l-1.01-0.34l0.74,1.64L1259.98,1287.96z M1270.46,1276.97l-1.34-0.46l-0.35,1.73l1.34,0.45L1270.46,1276.97z
	 M1152.11,1286.58l0.85,0.29l-0.26,1.26l-0.85-0.29L1152.11,1286.58z M1126.2,1219.83l0.85,0.29l0.26-1.25l-0.85-0.29
	L1126.2,1219.83z M1267.15,1283.49l-0.13,0.33c0,0.86,0.42,1.3,1.26,1.3h0.26v-0.81c-0.59-0.65-0.97-0.98-1.14-0.98L1267.15,1283.49
	z M1258.84,1285.94v0.65c0,0,0.25,0.43,0.75,1.3l0.63-0.81c-0.67-0.77-1.05-1.14-1.14-1.14H1258.84z M1249.92,1276.34
	c-0.5,0.76-0.75,1.25-0.75,1.47c0,0.75,0.38,1.14,1.13,1.14c0.42,0,0.76-0.33,1.01-0.98L1249.92,1276.34z M1240.23,1285.12
	l0.12,0.33c0,0.21-0.25,0.7-0.75,1.46l1.39,0.98c0.5-0.87,0.75-1.35,0.75-1.46l-0.12-0.49c-0.59-0.65-0.96-0.98-1.13-0.98
	L1240.23,1285.12z M1241.74,1275.2c0.17,0.22,0.29,0.59,0.38,1.14c0.08,0.55,0.19,1.11,0.31,1.71c0.13,0.59,0.29,1.14,0.5,1.63
	c0.21,0.48,0.48,0.84,0.82,1.06l0.63-0.82l-2.77-4.71H1241.74z M1234.07,1278.78v1.14l0.75-1.14H1234.07z M1269.98,1246.82
	c-0.08,0-0.46,0.32-1.14,0.98l0.63,0.97c0.51-0.87,0.76-1.41,0.76-1.63v-0.32H1269.98z M1259.28,1253.82v1.14l0.64-1.14H1259.28z
	 M1244.57,1249.91v1.47h1.01v-1.47H1244.57z M1247.34,1214.78v1.14h1v-1.14H1247.34z M1225.84,1242.59v1.8l0.63-1.8H1225.84z
	 M1228.6,1233.48c-0.5,0.44-0.76,1.09-0.76,1.95v0.82l1.38-1.62L1228.6,1233.48z M1223.45,1237.71v1.31h1.01v-1.31H1223.45z
	 M1229.86,1228.28v0.32c0,0.65,0.25,1.14,0.76,1.47l0.63-0.98l-1.26-1.63L1229.86,1228.28z M1232,1224.05l1.39,0.81v-0.33
	c0-0.22-0.26-0.76-0.76-1.63L1232,1224.05z M1221.81,1232.67c-0.5,0.22-0.76,0.71-0.76,1.47c0,0.65,0.26,1.08,0.76,1.3l0.63-0.81
	v-0.33C1222.44,1234.19,1222.23,1233.65,1221.81,1232.67z M1167.12,1221.9c0.12,0.89,0.58,1.34,1.39,1.34c0.8,0,1.27-0.44,1.38-1.34
	v-1.57c0-0.89-0.28-1.64-0.86-2.24L1167.12,1221.9z M1156.22,1223.69v1.79h1.39v-1.79H1156.22z M1138.57,1223.02l2.94,2.46
	l-1.91-3.58L1138.57,1223.02z M1136.84,1218.09l-0.17,0.67c0,0.3,0.35,0.9,1.04,1.79l0.87-1.11c-0.69-0.9-1.21-1.35-1.56-1.35
	H1136.84z M1131.13,1214.51l0.86,1.34l1.04-1.34l-1.04-1.12L1131.13,1214.51z M1085.37,1220.98l0.86,0.29l-0.26,1.26l-0.85-0.29
	L1085.37,1220.98z M1078.54,1227.31l0.86,0.29l-0.69-1.08L1078.54,1227.31z M1070.14,1220.73l0.73,0.25l-0.57-1.04L1070.14,1220.73z
	 M1069.8,1226.16l0.49,0.16l-0.29-1.11L1069.8,1226.16z M1066.96,1232.42c0.2,0.29,0.38,0.56,0.56,0.78
	c0.17,0.23,0.37,0.38,0.62,0.47c-0.16-0.06,0.07-0.12,0.69-0.18c0.62-0.07,1.6-0.15,2.92-0.26l-2.31-0.79
	c-0.57-0.19-1.02-0.3-1.36-0.3C1067.71,1232.12,1067.35,1232.22,1066.96,1232.42z M1071.86,1244.71l1.09,0.37l0.25-1.26l-1.1-0.37
	L1071.86,1244.71z M1063.22,1236.69c0.25,1.32,0.79,2.12,1.59,2.4c1.06,0.36,1.91,0.04,2.54-0.98c-0.74-1.03-1.39-1.65-1.96-1.85
	C1065.07,1236.15,1064.34,1236.29,1063.22,1236.69z M1058.23,1247.1c-0.03,0.1,0.16,0.67,0.57,1.71l0.76-0.58
	c-0.52-0.86-0.86-1.31-1.02-1.36l-0.24-0.08L1058.23,1247.1z M1058.84,1258.08c0.19,0.74,0.62,1.22,1.27,1.44
	c0.57,0.19,1.04,0.02,1.41-0.53l-0.54-1.19l-0.6-0.2C1059.81,1257.4,1059.29,1257.55,1058.84,1258.08z M1055.4,1251.35l0.37,0.12
	c0.08,0.03,0.2-0.02,0.36-0.13c0.15-0.11,0.37-0.24,0.66-0.36l-0.29-1.11c-0.64,0.57-0.98,0.96-1.02,1.17L1055.4,1251.35z
	 M1055.49,1260.46c0.19,0.74,0.62,1.22,1.26,1.44l0.61,0.21l-0.86-2.15L1055.49,1260.46z M1051.92,1257.55l0.24,0.09
	c0.48,0.16,0.92-0.03,1.29-0.58l-0.57-1.04l-1.54,1.16L1051.92,1257.55z M1064.48,1286.42l1.21,0.42l-1.02-1.36L1064.48,1286.42z
	 M1061.08,1285.26l0.24,0.08c0.16,0.06,0.63-0.12,1.41-0.52l-0.57-1.04c-0.66,0.67-1,1.06-1.02,1.16L1061.08,1285.26z
	 M1521.27,1283.63l-0.24-0.08c-0.16-0.06-0.63,0.12-1.41,0.53l0.69,1.08c0.6-0.8,0.9-1.21,0.9-1.21L1521.27,1283.63z
	 M1517.49,1274.1c-1.05-0.36-1.68-0.86-1.9-1.49l-0.77,0.58c0.11,0.71,0.41,1.15,0.9,1.32l1.58,0.54L1517.49,1274.1z
	 M1519.17,1269.12l-0.61-0.2l0.42,1.15L1519.17,1269.12z M1488.76,1237.97l-1.33-0.46l-0.36,1.73l1.34,0.46L1488.76,1237.97z
	 M1415.77,1239.04v-1.31h-1.01v1.31H1415.77z M1410.86,1245.7c0.25,0,0.46-0.14,0.63-0.41c0.17-0.27,0.32-0.57,0.44-0.89
	c0.13-0.32,0.25-0.62,0.38-0.89c0.13-0.27,0.27-0.46,0.44-0.57l-1.39-0.81l-0.75,3.58H1410.86z M1418.16,1242.13
	c0.5-0.44,0.75-1.08,0.75-1.95c0-0.76-0.26-1.31-0.75-1.63l-0.63,0.81v1.14C1417.53,1241.37,1417.73,1241.91,1418.16,1242.13z
	 M1413.38,1252.7c0.5-0.65,0.75-1.09,0.75-1.3l-0.12-0.49l-1.25,1.14L1413.38,1252.7z M1423.57,1242.94c1,0,1.5-0.98,1.5-2.92
	c0-0.87-0.21-1.63-0.63-2.28c-0.08,0.11-0.25,0.3-0.5,0.57c-0.25,0.27-0.5,0.56-0.76,0.89c-0.25,0.33-0.48,0.68-0.69,1.06
	c-0.21,0.38-0.31,0.73-0.31,1.05c0,0,0,0.06,0,0.16c0,0.11,0.04,0.33,0.12,0.65C1422.89,1242.67,1423.31,1242.94,1423.57,1242.94z
	 M1419.54,1248.47c0.51-0.32,0.76-0.86,0.76-1.62c0-0.55-0.25-0.92-0.76-1.14l-0.62,0.81l-0.13,0.32
	C1418.79,1246.96,1419.04,1247.5,1419.54,1248.47z M1412.75,1275.14H1412l0.76,0.81V1275.14z M1415.14,1282.29
	c0.67,0,1.01-0.49,1.01-1.46c0-0.65-0.25-1.08-0.75-1.3l-1.39,1.63C1414.59,1281.92,1414.97,1282.29,1415.14,1282.29z
	 M1420.92,1281.16c-0.17-0.11-0.29-0.38-0.38-0.81c-0.08-0.43-0.15-0.92-0.19-1.46c-0.04-0.54-0.12-1-0.25-1.38
	c-0.13-0.38-0.32-0.62-0.57-0.73l-0.62,0.81c0.25,0.43,0.53,0.95,0.82,1.54C1420.03,1279.72,1420.42,1280.4,1420.92,1281.16z
	 M1361.41,1237.58v1.3h1.01v-1.3H1361.41z M1361.79,1227.66v0.97l0.63-0.97H1361.79z M1356.38,1224.24v0.33
	c0,0.97,0.37,1.46,1.13,1.46h0.25v-0.98c-0.67-0.54-1.05-0.81-1.13-0.81H1356.38z M1356.76,1219.53v1.3h1.01v-1.3H1356.76z
	 M1345.82,1220.02h0.63l-0.63-0.81V1220.02z M1337.52,1216.93v1.3h1.01v-1.3H1337.52z M1325.95,1224.24
	c0.09,0.97,0.63,2.12,1.64,3.42h0.38c-0.17-0.11-0.31-0.36-0.44-0.73c-0.12-0.38-0.25-0.79-0.37-1.23
	c-0.13-0.43-0.25-0.78-0.38-1.06c-0.12-0.27-0.32-0.41-0.56-0.41H1325.95z M1323.94,1226.85c-0.25,0.44-0.44,0.73-0.56,0.89
	c-0.13,0.16-0.19,0.3-0.19,0.41l0.13,0.49l1.26-0.97L1323.94,1226.85z M1316.01,1219.2h0.63l-0.63-0.98V1219.2z M1315.14,1214.81
	c-0.17,0-0.55,0.27-1.13,0.82l0.63,0.97c0.5-0.87,0.75-1.3,0.75-1.3l-0.12-0.49H1315.14z M1359.54,1273.93
	c-0.33,0.43-0.5,0.92-0.5,1.46c0,0.21,0.11,0.51,0.32,0.89c0.21,0.38,0.44,0.81,0.69,1.3c0.25,0.49,0.48,0.95,0.69,1.39
	c0.21,0.43,0.28,0.81,0.19,1.13l0.63-0.82c-0.17-0.21-0.29-0.56-0.38-1.05c-0.08-0.49-0.19-1.04-0.31-1.63
	c-0.12-0.6-0.29-1.14-0.5-1.63C1360.15,1274.5,1359.88,1274.15,1359.54,1273.93z M1356.4,1277.35c-0.67,0-1,0.43-1,1.3
	c0,0.33,0.46,1.14,1.38,2.44c0.5-0.33,0.75-0.87,0.75-1.62v-1.14C1356.86,1277.68,1356.48,1277.35,1356.4,1277.35z M1354.01,1269.54
	c0.25,0.54,0.63,0.81,1.13,0.81c0.68,0,1.01-0.43,1.01-1.3c0-0.11-0.25-0.55-0.75-1.31L1354.01,1269.54z M1348.22,1264.5v1.46h1.01
	v-1.46H1348.22z M1478.28,1248.96l-1-0.34l0.74,1.64L1478.28,1248.96z M1491.19,1219.42l-0.75-0.81l-0.63,0.81l0.63,0.82
	L1491.19,1219.42z M1501.38,1222.51v-1.3h-1.01v1.3H1501.38z M1506.66,1219.91v-1.3h-0.88v1.3H1506.66z M1510.06,1233.57v-1.31
	h-1.01v1.31H1510.06z M1479.15,1242.61v-1.3h-1.01v1.3H1479.15z M1475.38,1253.51c1.09-0.87,1.63-2.01,1.63-3.41l-0.25-0.81
	c-0.59,0.32-1.01,0.81-1.26,1.46c-0.25,0.65-0.33,1.3-0.25,1.95L1475.38,1253.51z M1478.14,1258.39v-0.65
	c0-0.75-0.25-1.24-0.76-1.46l-0.63,0.81l1.38,1.95V1258.39z M1478.14,1266.19v-0.32c0-0.22-0.25-0.76-0.76-1.63l-0.63,1.14
	c0.75,0.54,1.13,0.81,1.13,0.81H1478.14z M1484.3,1259.04c0-1.41,0.21-2.34,0.63-2.76l-0.63-0.82c-0.51,0.32-0.76,0.82-0.76,1.46
	v2.12H1484.3z M1488.45,1259.85v-0.81l-0.75,0.81H1488.45z M1375.47,1288.06l0.12-0.29c0.08-0.19,0.12-0.29,0.12-0.29l-0.06,0.13
	l-0.06,0.16L1375.47,1288.06z M1410.08,1284.63l-0.18,0.43l-0.12,0.3l0.16,0.04l0.12-0.29
	C1410.17,1284.84,1410.2,1284.67,1410.08,1284.63z M1410.3,1282.23l-0.07,0.16l-0.18,0.43c0.17-0.07,0.26-0.13,0.31-0.24
	C1410.27,1282.46,1410.25,1282.34,1410.3,1282.23z M1412.3,1282.03l-0.12,0.29c-0.04,0.1-0.02,0.14,0.1,0.18l0.19,0.06
	C1412.5,1282.48,1412.44,1282.28,1412.3,1282.03z M1413.01,1281.25l-0.19-0.06c-0.22-0.07-0.43,0.11-0.58,0.49l0.19,0.05
	c0.21,0.07,0.34,0.02,0.34-0.14C1412.76,1281.42,1412.84,1281.32,1413.01,1281.25z M1054.06,1222.86l0.22,0.38l0.56-0.44l-0.51-0.48
	L1054.06,1222.86z M1123.18,1217.89l0.31,0.11l0.16-0.33l-0.31-0.11L1123.18,1217.89z M986.52,1215.77l-0.95-0.34l-1.13,0.03
	l-0.61,1.26l-0.52-0.18l-0.06,1.37c-0.4,0.81-0.4,1.25-0.14,1.34l0.51,0.18l0.97-2c0.25-0.52,0.64-0.9,1.01-1.03
	C986.1,1216.22,986.41,1215.99,986.52,1215.77z M885.05,1249.35l-0.14,0.3c-0.17,0.35-0.17,0.64-0.04,0.92l0.26-0.55
	C885.3,1249.67,885.28,1249.44,885.05,1249.35z M886.04,1251.93l-0.63-0.23l-0.15,0.3l0.64,0.23L886.04,1251.93z M884.99,1252.55
	c-0.17-0.06-0.36,0.04-0.55,0.44c-0.24,0.5-0.1,0.9,0.54,1.13l0.39-0.79C885.56,1252.92,885.46,1252.71,884.99,1252.55z
	 M888.31,1249.42l0.31,0.11c0,0.11-0.03,0.26-0.12,0.43c-0.1,0.2-0.23,0.33-0.44,0.49c-0.21,0.16-0.28,0.31-0.38,0.5
	c-0.46-0.16-0.76,0.02-1.02,0.57l-0.25-1.03c0.17-0.35,0.43-0.6,0.85-0.63C887.59,1249.77,887.95,1249.65,888.31,1249.42z
	 M1482.7,1267.39c0.49,0.18,0.91-0.03,1.23-0.69c0.61-0.06,1.27-0.74,1.88-2.01c0.4-0.14,0.71-0.45,1.14-1
	c0.41-0.49,0.8-0.63,1.36-0.43c0,0,0.17-0.36,0.5-1.02c0.08-0.18-0.14-0.4-0.63-0.58l-0.64,1.32c-0.49-0.18-0.86-0.09-1.09,0.39
	c-0.2,0.42-0.6,0.56-1.09,0.38l-0.79,1.62c-1.09,0.38-1.59,0.56-1.59,0.56c-0.23,0.49-0.72,0.8-1.41,1.05
	c-0.76,0.22-1.34,0.57-1.83,0.89c0.44,0.44,0.46,0.73,0.22,1.07c-0.29,0.25-0.3,0.46-0.09,0.53c0.51-0.38,0.97-0.64,1.53-0.79
	C1481.94,1268.45,1482.38,1268.05,1482.7,1267.39z M1476.55,1269.06l-0.57,0.15l0.25,0.51l0.35,0.12L1476.55,1269.06z
	 M1474.75,1269.89c-0.12,0.24-0.29,0.6-0.59,1.2c-0.26,0.54-0.24,0.83,0.04,0.93l0.97-1.98L1474.75,1269.89z M1469,1279.84
	l-0.44-0.94c-0.49-0.18-0.79-0.07-1.03,0.41L1469,1279.84z M1463.25,1286.25c0,0-0.15,0.3-0.47,0.96l0.35,0.12L1463.25,1286.25z
	 M1501.74,1214.26c-0.41-0.15-0.51-0.37-0.18-0.73c0.29-0.31,0.25-0.62-0.06-0.98c-0.34,0.11-0.81,0.36-1.56,0.73
	c-0.69,0.4-1.05,0.68-1.15,0.89c0.1,0.22,0.16,0.36,0.16,0.36c0.41,0.16,0.96,0.18,1.49,0.09
	C1501.01,1214.46,1501.46,1214.39,1501.74,1214.26z M1503.16,1227.22l-0.15,0.3c-0.18,0.35-0.17,0.6,0.01,0.66L1503.16,1227.22z
	 M1508.12,1237.61c-0.2,0.4-0.4,0.51-0.57,0.44c-0.23-0.09-0.57,0.02-0.93,0.31l0.29,0.11c0.64,0.24,1.07,0.1,1.35-0.45
	C1508.08,1237.96,1508.02,1237.81,1508.12,1237.61z M1505.61,1237.33l-0.35-0.13c-0.28,0.13-0.47,0.24-0.57,0.45
	c-0.1,0.2-0.09,0.32-0.03,0.47c0.01,0.12-0.01,0.3-0.09,0.45c0.07-0.15,0.21-0.28,0.38-0.34c0.17-0.06,0.33-0.24,0.51-0.59
	L1505.61,1237.33z M1490.29,1232.21c-0.1,0.2-0.15,0.3-0.32,0.36c-0.17,0.06-0.3,0.19-0.38,0.34c0.03,0.49,0.01,0.67,0.01,0.67
	c0.31-0.06,0.53-0.22,0.63-0.42c0.08-0.15,0.09-0.33,0.03-0.47C1490.2,1232.53,1490.19,1232.41,1490.29,1232.21z M1503.21,1239.72
	l0.28-0.55c0.18-0.35,0.28-0.55,0.28-0.55l-0.13,0.25L1503.21,1239.72z M1411.23,1217.8c-0.05-0.13-0.08-0.23-0.03-0.34
	c0.04-0.11-0.02-0.28-0.16-0.53l-0.21,0.09l-0.19,0.45l0.54,0.47l-0.07,0.16l-0.05,0.13L1411.23,1217.8z M1418.8,1218.97l0.62-0.14
	l0.06-0.16c0.23-0.56,0.2-1.08-0.14-1.52c-0.09,0.21-0.2,0.39-0.33,0.56c-0.11,0.18-0.23,0.38-0.3,0.57
	c-0.04,0.11-0.05,0.2-0.06,0.32c0.02,0.12,0.02,0.21-0.02,0.32l-0.12,0.3l0.17,0.53c0.13,0.04,0.18-0.01,0.21-0.09
	c0.04-0.11,0.05-0.19-0.05-0.29C1418.7,1219.3,1418.72,1219.15,1418.8,1218.97z M1417.51,1217.43l-0.5-0.15l-0.06,0.13l0.5,0.15
	L1417.51,1217.43z M1421.93,1218.26c0.03-0.08,0.22-0.2,0.51-0.32l0.24-0.59l0.4-0.03l0.37-0.4l0.28-0.25l-0.03-0.34
	c-0.09,0.21-0.23,0.32-0.47,0.37c-0.19,0.03-0.37,0.22-0.49,0.51c-0.22-0.07-0.4,0.03-0.52,0.32l-0.05,0.13
	c-0.46,0.19-0.72,0.38-0.81,0.6c-0.03,0.08,0.01,0.15,0.1,0.18L1421.93,1218.26z M1415.66,1215.87l0.56-0.01l0.18-0.43
	c-0.21-0.07-0.44-0.04-0.68,0.03c-0.22,0.11-0.47,0.21-0.8,0.33l0.19,0.06c0.09,0.03,0.2,0.03,0.27,0.02
	C1415.47,1215.84,1415.54,1215.83,1415.66,1215.87z M1418.71,1216.8c0.04-0.1,0.13-0.14,0.25-0.1c0.09,0.03,0.16,0.02,0.21-0.09
	c0.04-0.11-0.01-0.15-0.1-0.18c-0.03,0.08-0.12,0.12-0.24,0.08c-0.09-0.03-0.18,0-0.21,0.08L1418.71,1216.8z M1424.65,1215.81
	l-0.5-0.15l-0.06,0.16c-0.08,0.19,0,0.33,0.22,0.4c0.04-0.11,0.11-0.18,0.19-0.21C1424.57,1216,1424.6,1215.92,1424.65,1215.81z
	 M1174.88,1278.98l-0.32-0.31l-0.33,0.66l0.4,0.15L1174.88,1278.98z M1167.12,1277.05l-0.4-0.15l-0.31,0.1l-0.08,0.16
	C1166.47,1277.22,1166.74,1277.2,1167.12,1277.05z M1160.72,1275.68c-0.04-0.16-0.16-0.28-0.3-0.34c-0.11-0.04-0.39,0-0.75,0.12
	l0.58,0.22C1160.53,1275.79,1160.67,1275.77,1160.72,1275.68z M1159.86,1277.37c-0.25-0.1-0.32-0.23-0.11-0.45
	c0.18-0.19,0.15-0.39-0.03-0.61c-0.21,0.07-0.5,0.22-0.97,0.45c-0.02,0.01-0.03,0.02-0.04,0.02c-0.48-0.77-0.79-1.18-0.95-1.23
	l-0.24-0.08c-0.56,0.59-0.85,1-0.9,1.21l-0.07,0.32l0.57,0.36c0.36,0.13,0.69,0.15,0.97,0.08c0.03,0.06,0.04,0.1,0.04,0.1
	c0.25,0.1,0.59,0.11,0.93,0.05C1159.41,1277.49,1159.69,1277.45,1159.86,1277.37z M1160.74,1285.41l-0.09,0.19
	c-0.11,0.22-0.1,0.37,0.01,0.41L1160.74,1285.41z M1158.43,1275.44l0.22-0.44l0.14,0.03c0.34,0.09,0.6,0.19,0.64,0.35
	c-0.11,0.22-0.36,0.27-0.75,0.12C1158.61,1275.48,1158.53,1275.46,1158.43,1275.44z M1156.83,1278.59l0.29-0.57
	c0.07-0.04,0.13-0.11,0.18-0.2l0.08-0.16l0.22,0.5c-0.05,0.09-0.13,0.17-0.23,0.21c-0.11,0.03-0.19,0.12-0.24,0.21L1156.83,1278.59z
	 M1223.32,1228.62l-0.23,0.48c-0.13,0.09-0.26,0.19-0.38,0.3l-0.4-0.15c-0.06-0.13-0.07-0.28-0.01-0.41c0,0,0.12-0.07,0.35-0.28
	L1223.32,1228.62z M1031.26,1286.01c0.43,0.15,0.81-0.02,1.1-0.61c0.54-0.06,1.13-0.66,1.67-1.78c0.35-0.12,0.63-0.4,1.01-0.89
	c0.36-0.43,0.71-0.56,1.21-0.38c0,0,0.16-0.32,0.44-0.91c0.08-0.16-0.12-0.36-0.55-0.51l-0.57,1.17c-0.44-0.15-0.76-0.08-0.97,0.34
	c-0.18,0.37-0.53,0.5-0.97,0.34l-0.7,1.44c-0.97,0.34-1.41,0.5-1.41,0.5c-0.2,0.42-0.64,0.71-1.25,0.93
	c-0.68,0.2-1.19,0.51-1.62,0.79c0.39,0.39,0.41,0.65,0.19,0.95c-0.25,0.22-0.27,0.41-0.08,0.47c0.46-0.34,0.86-0.57,1.36-0.7
	C1030.58,1286.96,1030.98,1286.6,1031.26,1286.01z M882.66,1289.32h16.9v-23.04h12.84c16.44,0,29.78-8.39,30.96-24.61l-0.17,0.84
	l-1.1-0.37l0.26-1.26l1.03,0.36c0.04-0.64,0.06-1.28,0.06-1.94v-0.22c0-15.69-11.08-26.55-29.4-26.55h-31.38v43.28l0.05-0.1
	c0.22-0.45,0.39-0.79,0.46-0.94c0.46,0.17,0.51,0.48,0.25,1.03c-0.18,0.38-0.43,0.78-0.76,1.2v2.38l0.44,0.16l-0.39,0.8l-0.05-0.02
	v0.64l2.29,0.83l-0.43,0.89c-0.62,0.12-1.23,0.09-1.81-0.12l-0.05-0.02V1289.32z"/>
<path class="st1" d="M904.57,490.92c0.34,1.31,0.95,2.41,1.86,3.29c0.89,0.92,2.02,1.61,3.47,2.11c2.85,0.96,5.07,0.53,6.67-1.28
	l-1.88-4.2l-5.14-1.76C907.82,488.47,906.16,489.09,904.57,490.92 M882.33,489.83c0.4,2.51,1.31,4,2.73,4.5
	c2.01,0.68,3.39-0.04,4.13-2.15l-1.48-4.05l-0.85-0.3C886.29,487.63,884.78,488.29,882.33,489.83z M889.66,527.92
	c0.84,1.86,1.97,3.05,3.4,3.54c0.57,0.2,1.44,0.03,2.65-0.58c1.18-0.59,2.52-1.19,4.05-1.87c1.51-0.67,2.92-1.26,4.27-1.78
	c1.34-0.55,2.38-0.48,3.17,0.18l-1.58-3.51c-0.72,0.54-1.75,0.77-3.11,0.7c-1.37-0.06-2.89-0.09-4.56-0.06
	c-1.69,0-3.28,0.25-4.75,0.71C891.68,525.77,890.52,526.64,889.66,527.92z M910.04,562.78c-0.62,2.95,0.1,4.77,2.07,5.46
	c2.85,0.97,4.67-0.36,5.42-4.06l-0.31-0.7c-1.55-2.93-2.47-4.41-2.74-4.51l-1.29-0.42C911.08,561.37,910.04,562.78,910.04,562.78z
	 M895.83,544.87c-0.62,2.96,0.21,4.82,2.49,5.59c0.88,0.31,3.42-0.99,7.7-3.88c-0.42-2.51-1.62-4.1-3.61-4.77l-3.02-1.03
	C897.09,543.12,895.9,544.5,895.83,544.87z M897.59,598.86l3.24-2.46l-2-3.64l-2.71,2.05L897.59,598.86z M874.71,587.46l5.96-4.49
	l-1.57-3.5c-1.79-0.22-2.98,1.14-3.6,4.1l-0.34,1.69L874.71,587.46z M854.57,569.27l3.85,1.35l0.91-4.44l-3.86-1.33L854.57,569.27z
	 M860.33,586.07c1.04,2.35,2.01,4.27,2.93,5.77c0.92,1.48,1.65,2.36,2.24,2.55c1.43,0.47,2.49-0.33,3.25-2.45
	c-2.52-5.59-4.5-8.66-5.92-9.15c-0.3-0.09-0.58-0.19-0.86-0.29c-0.29-0.12-0.6,0-0.98,0.27L860.33,586.07z M856.15,527.8
	c1.37-1.1,1.96-2.27,1-3.56c-0.83-1-0.47-2.24,0.91-3.34l-9.68-3.65c-1.38-3.07-2.67-4.24-3.87-4l-1.34-0.51
	c-0.39,0.78,0.31,1.5,1.89,2.1c0.41,3.39,1.75,5.51,4.22,6.45l0.49-0.98l4.72,1.79c-1.36,1.1-2.08,1.99-1.83,2.53
	c0.35,0.36,0.06,0.95-0.33,1.72L856.15,527.8z M864.74,533.57l1.35,0.51c1.57,0.59,2.89,0.63,3.75,0.03
	c0.52-0.5,1.39-0.63,2.29-0.29l2.49,0.92c0.67,0.26,1.31,0.04,1.72-0.73l0.49-0.98l-1.12-0.42c-3.38-1.27-7.82-2.03-13.47-2.54
	l-1.14-0.42c-0.9-0.34-1.54-0.12-1.83,0.47c-0.4,0.77-0.03,1.6,1,2.23c1.16,0.9,1.76,1.82,2.26,2.93L864.74,533.57z M830.04,544.27
	l2.48,0.94l2.66-5.23l-3.56,1.2l-2.21,1.7l-1.86,0.46c-1.47,2.92-2.59,4.58-3.88,5l3.59,1.35c1.3-0.42,1.8-1.4,1.39-2.7
	C828.48,545.76,828.97,544.8,830.04,544.27z M822.14,553.99c1.08-2.13,1.1-3.74-0.08-5.11l0.52,1.58c-0.69,1.35-1.95,2.26-3.67,3
	c-1.85,0.47-2.9,1.46-3.68,3.01c-0.3,0.58-0.21,2,0.9,4.03l-0.86-1.48c0.79-1.55,1.96-2.26,3.47-2.62
	C820.41,556.34,821.45,555.34,822.14,553.99z M816.8,564.44c-2.24-0.85-4.19-0.18-5.28,1.94c-0.69,1.35-0.47,3.05,0.31,5.19
	c1.29-0.43,2.01-1.31,2.81-2.85L816.8,564.44z M878.47,480.08c28.19,0,52.64,16,64.78,39.41l-0.4,0.58
	c-1.52,2.23-3.37,4.97-5.54,8.18c3.39-0.07,6.19-1.22,8.42-3.47c3.65,8.68,5.66,18.23,5.66,28.24c0,15.64-4.93,30.13-13.31,42.01
	l-1.59-2.41c-1.54,1.48-4.91,1.49-10.12,0.09c-4.44-0.71-7.11,0.34-8.01,3.21c-0.64,0.17-0.1,0.55,1.62,1.13
	c1.99,0.68,5.28,1.83,9.83,3.37c1.14,0.39,2.22,0.71,3.23,0.96c-5,5.64-10.87,10.51-17.39,14.38l-1.03-1.54
	c-2.24,1.97-3.4,3.17-3.47,3.53l-0.1,0.52c-8.74,4.38-18.49,7.05-28.8,7.58l-0.24-0.29l-0.34,0.31c-1.07,0.05-2.15,0.07-3.22,0.07
	c-24.12,0-45.5-11.71-58.78-29.76l2.23-4.39c0.4-0.78-0.54-1.59-3-2.52l0.49-0.97c0.39-0.78,0.94-0.81,1.43-0.16
	c0.69,0.73,1.44,0.31,2.13-1.04c2.37-0.95,6.39-1.98,12.12-3.75c5.61-1.57,9.28-2.97,10.87-3.98l1.13,0.42
	c0.91,0.35,2.42,0,4.9-0.69l3.61,0.17l2.81-5.51c-0.42,0.33-0.85,0.67-1.27,1.04c-1.2,0.25-4,1.03-8.67,2.27
	c-4.43,1.34-9.22,2.3-13.9,3.08c-4.7,0.76-9.05,1.44-12.88,2.07c-3.58,0.73-6,0.73-6.68,0.48l-2.47-0.94l-0.97,0.33
	c-3.88-8.91-6.03-18.75-6.03-29.09C805.54,512.73,838.2,480.08,878.47,480.08z"/>
<path class="st1" d="M1446.04,749.58c-1.08-0.76-1.09-0.39-0.04,1.05c1.05,1.45,2.88,4,5.49,7.61c2.38,3.26,4.78,4.4,7.23,3.47
	l0.17-6.3l-1.56-2.16c-0.53-0.74-1.8-1.4-3.83-2.02C1451.49,750.61,1448.99,750.05,1446.04,749.58"/>
<polygon class="st1" points="1409.49,684.8 1412.62,689.14 1416.41,684.59 1413.26,680.23 "/>
<path class="st1" d="M1464.13,685.47c-1.22,0.99-1.76,2.03-0.9,3.19c0.75,0.91,0.41,2.02-0.81,3.02l8.69,3.28
	c1.26,2.74,2.41,3.8,3.48,3.58l1.21,0.46c0.36-0.71-0.27-1.35-1.69-1.89c-0.38-3.04-1.58-4.95-3.8-5.79l-0.44,0.87l-4.24-1.61
	c1.21-0.98,1.87-1.77,1.64-2.27c-0.32-0.33-0.05-0.85,0.31-1.54L1464.13,685.47z"/>
<path class="st1" d="M1452.83,679.45c-0.38,0.05-0.73,0.15-1,0.34c-0.46,0.43-1.24,0.56-2.06,0.26l-2.23-0.84
	c-0.61-0.23-1.19-0.03-1.54,0.66l-0.44,0.87l1,0.38c3.04,1.15,7.04,1.83,12.1,2.29l1.01,0.38c0.82,0.31,1.39,0.11,1.64-0.41
	c0.36-0.69,0.03-1.45-0.9-2.01c-1.03-0.8-1.58-1.62-2.03-2.63l-0.23,0.18l0.71-0.86l-3.11-4.36l-3.8,4.58L1452.83,679.45z"/>
<path class="st1" d="M1487.58,670.67l-2.22-0.84l-0.56,1.1c-0.4-0.07-0.84-0.15-1.29-0.22l-0.34,3.42l-0.21,0.4l0.17-0.06l-0.2,2.02
	l7-2.33l-0.38-1.6c-0.18-0.26-0.54-0.48-1.09-0.71l1.35-0.35c1.32-2.6,2.33-4.09,3.49-4.47l-3.23-1.23
	c-1.17,0.39-1.61,1.26-1.26,2.43C1488.99,669.33,1488.54,670.2,1487.58,670.67z"/>
<path class="st1" d="M1494.69,661.93c-0.98,1.92-0.98,3.36,0.06,4.59l-0.48-1.42c0.62-1.22,1.76-2.04,3.31-2.7
	c1.66-0.41,2.59-1.29,3.3-2.7c0.27-0.51,0.18-1.79-0.82-3.62l0.78,1.32c-0.71,1.4-1.76,2.04-3.13,2.36
	C1496.25,659.82,1495.31,660.72,1494.69,661.93z"/>
<path class="st1" d="M1450.64,624.64c13.21,0,25.59,3.57,36.22,9.78c-1.16,0.34-2.43,0.72-3.81,1.15c-5.07,1.4-8.36,2.66-9.78,3.57
	l-1.01-0.38c-0.82-0.31-2.17,0-4.41,0.61l-3.25-0.15l-2.53,4.96c0.4-0.3,0.78-0.61,1.15-0.94c1.07-0.22,3.61-0.93,7.79-2.05
	c3.99-1.19,8.29-2.05,12.49-2.75c2.72-0.44,5.31-0.85,7.72-1.24c4.14,2.83,7.98,6.09,11.44,9.7c-0.47,0.44-0.84,1.03-1.25,1.82
	l-1.94,3.82c2.01,0.77,3.77,0.18,4.74-1.74c0.27-0.54,0.39-1.14,0.37-1.81c11.21,12.69,18.01,29.35,18.01,47.61
	c0,0.66-0.01,1.32-0.03,1.98l-0.62-0.24l-0.44,0.89c-0.57,1.11-0.25,2.03,0.89,2.59c-0.08,1.08-0.17,2.15-0.3,3.22l-3-1.12
	l-1.5,2.96l-0.44,0.87l1.21,0.45c1.2,0.46,2.42-0.14,3.57-1.93c-4.72,35.18-34.84,62.29-71.3,62.29
	c-39.74,0-71.96-32.21-71.96-71.96C1378.68,656.86,1410.9,624.64,1450.64,624.64z"/>
<rect x="1567.06" y="585.48" class="st1" width="3.55" height="4.6"/>
<polygon class="st1" points="1548.9,578.03 1546.68,580.89 1551.54,578.03 "/>
<path class="st1" d="M1566.42,580.29c1.08-0.22,1.45-0.49,1.45-0.49l0.45-0.87l-4.25-1.6l-1.64,0.41c-1.43-0.53-2.73-0.82-4.12-0.91
	c-1.19-0.04-2.61-0.58-4.03-1.11l-0.56-1.24c-0.35-0.77-1.45-1.44-3.33-2.24l0.12-4.83l-2.08,2.52l1.51,2.12
	c-0.44-0.18-0.93-0.38-1.45-0.58c-1.42-0.53-2.52-0.73-3.68-0.35c2.23,0.84,3.98,2.13,5.36,3.69c1.29,1.72,3.13,2.82,5.36,3.67
	c2.23,0.84,4.13,1.35,5.92,1.19C1563.22,579.5,1565.02,579.75,1566.42,580.29z"/>
<path class="st1" d="M1569.16,564.51l2.22,0.84l1.75-0.58l0.44-0.88C1572.76,563.59,1571.28,563.65,1569.16,564.51z"/>
<path class="st1" d="M1581.64,536.95c5.53,6.28,8.89,14.53,8.89,23.56c0,1.41-0.09,2.8-0.25,4.17c-1.35-0.21-3.07-0.34-5.13-0.34
	c-3.47-0.28-5.73-0.1-6.81,0.12c0.91,2,1.94,2.81,3.12,2.84c1.31,0.29,2.62,0.56,4.23,1.18c1.23,0.46,2.39,1.06,3.46,1.86
	c-4.27,14.91-18.01,25.82-34.29,25.82c-9.44,0-18.01-3.66-24.39-9.65c0.95-1.67,2.26-3.2,4.21-4.49c1.99-1.54,3.38-2.87,4.01-4.1
	c0.7-1.39,0.84-2.58,0.67-3.68c-0.27-1.35-0.15-2.54,0.56-3.95l0.88-1.73l2.76-0.2l1.95-3.83l2.66-0.03
	c1.59-3.14,3.55-5.1,5.59-5.78l0.54-1.05l2.68-0.03c1.57-3.14,4.11-5.71,7.57-7.3c3.55-1.77,6.21-3.68,8.35-5.98l1.45-0.49
	l2.72-2.49l1.46-0.49c0.34-0.7,0.91-1.32,1.58-1.68c0.76-0.55,1.23-0.99,1.58-1.69L1581.64,536.95z"/>
<path class="st1" d="M1554.87,524.85c10.04,0,19.11,4.15,25.59,10.82c-0.44,0.28-0.77,0.58-0.99,1c-0.34,0.69-1.19,1.41-2.63,2.33
	c-1.42-0.53-2.4-0.49-2.75,0.2c-0.26,0.52-0.83,1.15-2,1.54l-3.4,4.31l-2.66,0.03l-0.98,1.91c-1.97,0.08-3.6,0.92-5.39,2.53
	c-1.58,1.69-3.18,2.95-4.62,3.86c-1.77,0.16-3.2,1.08-4.18,3c-1.77,0.16-3.17,1.5-4.41,3.93c-0.43,0.15-0.83,0.25-1.2,0.3l1.41-1.51
	c-2.37-2.27-3.69-3.43-3.99-3.43h-0.88v1.16c0,0,0.46,1.02,1.33,3.04l-1.13-1.23c-1.15,0.38-1.74,0.58-1.74,0.58
	c-0.35,0.71-0.33,1.13-0.1,1.62c0.22,0.51,0.07,1.27-0.64,2.67l-0.43,0.87l-1.22-0.45c-0.6-0.23-1.28,0.14-1.72,1.01
	c-0.54,1.05-0.39,1.71,0.21,1.95l-2.87,3.27l-2.22-0.85l-1.95,3.84c-0.62,1.21-1.96,1.95-3.73,2.11c-0.99,0-2,0.2-2.92,0.56
	c-1.83-3.83-2.99-8.05-3.33-12.49l2.95,2.09c2.96-6.51,4.44-9.58,4.44-9.17c0-0.84-0.17-1.55-0.52-2.15l1.48,1.42l1.86-3.67
	l-2.23-0.83l-1.38,2.68c-0.26-0.34-0.6-0.65-0.99-0.91l-5.72,6.96c0.28-13.93,8.56-25.9,20.43-31.51l4.35,5.64l2.66-2.87v-1.15
	c0-0.32-0.59-1.51-1.77-3.61C1548.07,525.34,1551.42,524.85,1554.87,524.85z"/>
<path class="st1" d="M1068.47,660.44c14.78,0,27.66,8.07,34.5,20.04l-0.21-0.05l-0.36,0.88l1.24,0.38
	c2.89,5.51,4.54,11.79,4.54,18.45c0,21.93-17.78,39.71-39.7,39.71c-21.94,0-39.71-17.78-39.71-39.71
	C1028.75,678.21,1046.53,660.44,1068.47,660.44"/>
<path class="st1" d="M1090.24,499.52l-1.53-0.55c-0.42-0.16-0.82-0.02-0.99,0.34c0.42,0.15,0.63,0.37,0.53,0.62
	c-0.11,0.24,0.11,0.47,0.66,0.65C1089.33,500.74,1089.83,500.36,1090.24,499.52 M1090.2,503.31l-0.93,1.92l0.06,1.57l0.92-1.92
	L1090.2,503.31z M1085.02,517.66l-0.48-1.01c-0.66,0.32-1.06,0.47-1.06,0.47L1085.02,517.66z M1093.38,520.68
	c0.8-0.28,1.18-0.71,1.35-1.06c0.24-0.48,0.91-0.53,1.88-0.17l0.65-1.33c0.81-1.67,1.04-3.14,0.34-4.39l-0.31,0.6l-1.92,3.96
	l-0.69-0.25c-0.56-0.19-1.14,0.3-1.77,1.62l-0.35,0.71c-1.41-0.5-2.42-0.44-2.82,0.4l-0.35,0.72l0.84,0.3
	C1090.23,521.79,1091.27,521.33,1093.38,520.68z M1086.39,540.44l-0.7-0.25c-1.53-0.55-2.66-0.26-3.3,1.06l0.19,1.63
	c0.41-0.84,1.06-1.18,1.76-0.91c0.84,0.29,1.35-0.08,1.76-0.93L1086.39,540.44z M1099.25,528.86l-1.54-0.55
	c0.73-0.16,0.99-0.35,0.99-0.35C1099.26,528.15,1099.42,528.49,1099.25,528.86z M1099.07,547.58c-0.47,0.11-0.94,0.22-1.41,0.31
	C1098.03,547.56,1098.51,547.46,1099.07,547.58z M1092.4,493.2c6.83,0,13.06,2.48,17.88,6.58l-0.14,0.28
	c-1.39,0.51-2.41,1.25-2.93,2.34c-0.54,1.08-1.34,2.05-2.17,2.74c-0.96,0.64-1.98,1.39-2.92,2.32c-1.09,0.88-1.9,1.86-2.31,2.7
	l-0.64,1.31l2.38,0.86l-0.49-1.02c0.18-0.36,1.09-0.88,2.47-1.36l5.09-5.09l0.29-0.59l0.84,0.3l2.1-3.35
	c3.31,3.29,5.8,7.42,7.11,12.03c-1.22,0.45-2.35,0.93-3.48,1.42c-1.15,0.71-2.16,1.06-2.8,1.39c-0.82,1.69-3.23,2.92-7.11,3.5
	l-0.36,0.71c-0.41,0.84-0.92,1.22-1.49,1.03c-0.41-0.15-0.86,0.1-1.34,1.07c-1.14,0-2.56,0.19-3.83,0.44
	c-1.32,0.36-2.53,0.49-3.89,0.58l-1.53-0.56l-0.29,0.6l-0.7-0.25c-1.53-0.55-2.73-1.14-3.64-1.6c-1-0.64-1.92-1.1-2.9-1.46
	c-0.98-0.36-1.87-0.54-2.55-0.5c-0.48-0.03-1.32-0.33-2.06-1.17c-0.55-0.21-0.81-0.01-0.99,0.35c-0.23,0.48-0.12,0.95,0.6,1.49
	c0.64,0.37,1.15,0.98,1.34,1.6l1.55,0.55c3.05,1.11,4.98,2.22,5.48,3.53c1.44-0.6,2.88-0.51,4.42,0.04l0.83,0.31
	c0.56,1.19,0.65,2.06,0.01,2.68c-0.58,0.49-1.12,1.29-1.53,2.13c-0.23,0.48-0.01,0.7,0.55,0.91c0.42,0.14,0.48,0.73,0.06,1.57
	l-0.35,0.72c-1.15,0.01-2.17,0.76-2.82,2.08c-0.4,0.84-0.48,2.37-0.33,4.39l-1.04,0.47c-0.41,0.85-0.57,1.5-0.08,1.82
	c0.44,0.44,0.58,1.19,0.72,2.23l1.54,0.55c1.38-0.49,2.01-1.11,1.63-1.68c-0.18-0.63-0.18-1.33,0.3-2.28
	c0.41-0.84,0.84-1.39,1.35-1.77c0.38-0.43,0.82-0.99,1.21-1.82l0.66-1.32l1.53,0.55c1.19-1.12,1.33-2.06,0.41-2.53
	c-0.86-0.6-1.13-1.39-0.72-2.23c0.97-0.64,1.91-1.57,3.1-2.69c1.06-1.17,1.86-2.15,2.33-3.12c0.18-0.36,0.09-0.82-0.23-1.2
	c-0.44-0.45-0.49-1.02-0.08-1.86c1.58-0.56,2.46-0.67,3.02-0.47c0.47-0.95,1.18-1.41,2.53-1.47c1.14-0.02,2.08-0.25,2.88-0.53
	l1.34-1.06l3.31-1.06l0.63-1.32l1.54,0.55c0.33-0.69,0.95-1.27,2.02-1.76c0.19,1.3,0.29,2.63,0.29,3.98
	c0,11.78-7.38,21.83-17.77,25.79c-0.33-0.18-0.68-0.35-1.04-0.52l-3.7,0.21c-0.33-0.68-0.97-1.05-1.94-1.4l-0.84-0.31l-0.29,0.61
	c-0.22,0.48-0.01,0.7,0.55,0.89c0.42,0.16,0.19,0.63-0.63,1.32l2,0.73c-1.28,0.18-2.59,0.28-3.92,0.28c-2.73,0-5.37-0.4-7.85-1.13
	c-0.93-1.61-1.55-3.05-1.88-4.28c-0.49-0.55-1.03-0.92-1.61-1.13c-0.28-0.08-0.57-0.19-0.85-0.3c-0.84-0.29-1.76,0-2.69,0.87
	c-0.33,0.3-0.65,0.61-0.99,0.95c-7.08-4.99-11.72-13.24-11.72-22.57C1064.81,505.56,1077.16,493.2,1092.4,493.2z"/>
<path class="st1" d="M835.98,705.21c8.34,0,15.1,6.76,15.1,15.11c0,8.34-6.77,15.1-15.1,15.1c-8.34,0-15.1-6.76-15.1-15.1
	C820.88,711.97,827.64,705.21,835.98,705.21"/>
<path class="st1" d="M1262.46,558.49c8.34,0,15.1,6.76,15.1,15.11c0,8.34-6.77,15.1-15.1,15.1c-8.35,0-15.11-6.76-15.11-15.1
	C1247.35,565.25,1254.11,558.49,1262.46,558.49"/>
<path class="st1" d="M1679.67,531.02c-1.46,0.38-2.22,1.9-2.22,4.59c0,2.66,0.76,4.2,2.22,4.58l2.65-2.86v-1.15
	C1682.32,535.04,1681.44,533.3,1679.67,531.02 M1682.8,528.28c8.35,0,15.11,6.76,15.11,15.11c0,8.34-6.76,15.1-15.11,15.1h-0.03
	c-0.01-3.03-1.04-4.91-3.1-5.69v5.36c-6.83-1.44-11.97-7.51-11.97-14.78C1667.7,535.04,1674.46,528.28,1682.8,528.28z"/>
<path class="st1" d="M1382.36,309.64c-13.7-13.71-32.74-22.19-53.84-22.19c-4.06,0-8.05,0.32-11.94,0.92l0.22-0.5
	c0.18-0.44-0.12-0.77-1.14-1.09l-1.15,1.02l1.95,0.59c-7.15,1.13-13.96,3.24-20.29,6.19c0.2-0.33,0.43-0.65,0.68-0.99
	c0.54-0.96,1.02-1.8,1.39-2.68c0.64-1.55,0.66-2.66-0.18-3.42c-0.89,1.1-1.83,2.68-2.64,4.66c-0.53,1.28-0.71,2.31-0.58,3.07
	c-7.52,3.69-14.32,8.58-20.16,14.42l-0.11,0.11c-3.69,3.69-6.99,7.75-9.86,12.14c-0.33-0.02-0.69-0.08-1.08-0.2l-1.67,0.25
	c-0.51-0.17-0.94-0.17-1.25-0.14c-0.21,0.17-0.65,0.17-1.15,0.02c-0.4-0.11-0.56-0.42-0.42-0.74c-0.9-0.28-1.32-0.65-1.14-1.1
	c0.03-0.08,0.04-0.17,0.04-0.25c-2.2,0.13-4.96,0.34-8.5,0.81l-0.96,1.29l-1.05,0.42c-0.7,0.65-1.22,1.23-1.51,1.89
	c-0.21,0.56-1.05,1.17-2.26,1.68c0.32,0.6,0.36,1.22,0.03,1.98c-0.37,0.89-0.8,1.62-1.38,2.33c-0.57,0.69-1.06,1.53-1.39,2.3
	c-2.48,1.11-4.9,2.11-7.25,3.24c-2.3,1.05-4.64,2.19-7.2,3.15c-0.39-0.13-0.51-0.52-0.14-1.42c-0.77-0.6-1.53-1.57-2.09-2.62
	l0.49-1.22l-1.41-0.42l-1.33-2.39c-0.5-0.17-0.98-0.43-1.28-0.77c-0.42-0.37-0.76-0.61-1.27-0.75c0.31-0.78-0.03-1.37-0.92-1.65
	c-0.5-0.15-0.72,0.03-0.9,0.46l0.41,0.75l0.91,1.65l1.41,0.42c-0.32,0.77,0.14,1.42,1.55,1.84c0.22,1.93,0.88,3.12,1.69,3.62
	c0.85,0.38,1.66,1.25,2.23,2.28l-1.77,2.2c-0.2-0.56-0.55-0.41-0.92,0.47l-0.23,0.55c-0.32,0.76-1.19,1.5-2.4,2
	c-0.83,0.61-1.29,1.35-1.39,2.3c-0.06,0.85-0.25,1.66-0.56,2.43c-0.37,0.88-0.69,1.29-1.03,1.43c-0.34,0.14-0.48,0.47-0.62,0.81
	l-1.04,0.42l-0.22,0.55c-0.32,0.77-0.85,1.36-1.42,1.68c-0.5-0.15-0.82-0.13-0.98,0.32l-0.24,0.54l-0.99,2.44
	c1.21-0.51,2.26-1.3,3.03-2.44c0.75-1.14,1.76-2.19,3.15-3.14l0.73-1.75l1.68-0.24c0.83-0.61,1.59-1.74,2.22-3.29l1.68-0.23
	l0.23-0.55l1.41,0.42l0.28-0.66c0.51-0.2,0.91-0.47,1-0.69c0.08-0.23,0.44-0.36,1.13-0.65l0.49-1.21l1.28,0.39l1-2.42l1.41,0.43
	l0.49-1.21l0.99-0.32l0.28-0.66l2.51-0.48c1.76-1.83,3.9-3.17,6.48-4.23c2.45-1,4.66-2.56,6.69-4.68c0.39,0.12,0.94,0.17,1.55,0.11
	c0.48-0.11,1.04-0.06,1.42,0.05c0.64-0.16,1.31-1.09,2-2.74c0.89,0.27,1.43,0.69,1.51,1.21c-0.01,0.36,0.54,0.79,1.44,1.06
	l0.99-0.32l0.27-0.66l1.6,0.14c-1.68,3.19-3.14,6.52-4.36,9.97l-0.82,0.35c0.26,0.07,0.46,0.17,0.61,0.27
	c-0.85,2.48-1.58,5.03-2.18,7.62l-0.02,0.07c-0.11,0.38-0.18,0.73-0.24,1.05l-0.28,1.41l-0.91,0.83l-1.7,0.23l2.29,0.7
	c-0.55,3.17-0.9,6.41-1.04,9.7l-0.04,0.02l0.04,0.01c-0.05,1.11-0.07,2.22-0.07,3.35c0,15.53,4.6,29.95,12.5,41.94l-0.03,0.06
	c-0.22,0.44-0.08,0.76,0.31,0.91l0.16-0.31c2.73,4.04,5.82,7.81,9.25,11.23l0.11,0.11c3.82,3.83,8.06,7.24,12.64,10.18
	c0.04,0.48,0.18,1,0.4,1.59c0.43-0.14,0.75-0.37,1.02-0.71c3.59,2.19,7.38,4.09,11.35,5.68c-2.45,0.4-4.73,0.75-6.75,1.09
	c-2.03,0.41-3.42,0.42-3.8,0.28l-1.41-0.54l-1.11,0.37c-0.9-0.33-2.08-1.31-3.48-2.75c-2.61-0.59-5.19-0.91-7.77-1.23
	c-2.64-0.21-5.38-0.85-8.19-1.9c-2.31-0.87-4.42-1.8-6.49-2.84c-1.94-1-3.95-2.15-6.21-3.4l-1.44-1.97
	c-1.39-0.54-2.41-0.65-3.09-0.51c-0.73-0.67-1.14-1.36-1.04-1.85c-0.1-0.42-0.62-0.89-1.51-1.23l-1.41-0.54
	c0.11,0.97,1.02,2.49,2.7,4.58l0.02,1.45c1.93,0.73,2.96,1.38,3.25,2.01c-0.39,0.77-0.66,1.32-0.64,1.86
	c0.04,0.54-0.12,1.13-0.52,1.9l1.54-1.52c1.03,0.38,1.47,0.42,1.58,0.21c0.11-0.22,0.68-0.14,1.59,0.2
	c-0.25,0.44,0.03,0.8,0.67,1.04c0.77,0.3,1.05,0.66,0.88,0.99l0.45,2.41l0.37,0.78c0.5,0.2,0.81-0.08,1.07-0.62
	c0.29-0.56,0.71-0.79,1.22-0.59c0.9,0.33,1.68,0.88,2.16,1.46c0.41,0.68,1.2,1.24,2.09,1.58l1.42,0.53
	c0.72,0.66,1.28,0.75,1.74-0.13c0.39-0.78,1.12-1.02,2.02-0.69c0.91,0.34,1.35,0.64,1.25,0.86c-0.11,0.22,0.08,0.43,0.47,0.58
	l0.76,0.29l3-1.1c1.19,0.97,3.11,1.95,5.95,3.03c2.81,1.06,4.71,1.51,5.96,1.45l1.69-0.02l0.36,0.79c-0.45,0.88-0.1,1.41,0.79,1.74
	l-1.86,3.64c-0.39,0.77-0.36,1.31,0.03,1.45c1.02,0.4,1.91-0.45,2.92-2.43c1.02-1.98,1.74-3.42,2.14-4.2
	c0.22-0.44-0.31-0.9-1.71-1.42l0.27-0.55c0.24-0.44,0.54-0.46,0.82-0.09c0.4,0.41,0.82,0.17,1.22-0.59
	c1.35-0.54,3.62-1.13,6.88-2.13c0.76-0.21,1.45-0.41,2.09-0.61c6.81,2.4,14.06,3.86,21.62,4.24l-0.3,0.25l4.86,5.72l2.23-2.85
	l0.44-1.15c0-0.23-0.32-0.86-0.95-1.9c20.14-0.62,38.26-8.97,51.44-22.15l0.11-0.11c13.7-13.7,22.18-32.73,22.18-53.83
	c0-21.11-8.48-40.14-22.18-53.84L1382.36,309.64z M1255.96,474.16l-0.73-0.48l0.62,0.22L1255.96,474.16z M2114.71,796.4h-9.18
	l2.45-3.87c1.7-0.8,3.11-2.69,4.4-5.33c0.81-1.68,1.51-2.41,2.06-2.22l1.93,1.41c-0.31,2-0.38,2.82,0.01,2.68
	c0.39-0.15,0.07,0.87-1.04,3.14l-0.93,1.93C2114.98,794.77,2115.11,795.52,2114.71,796.4z M2364.81,796.4h-3.25
	c0.22-0.35,0.55-0.64,0.98-0.85L2364.81,796.4z M2138.93,747.86h225.87v27.78c-0.47-0.22-1.02-0.33-1.65-0.33
	c-1.46,0-2.65,1.15-3.53,3.46l2.66,2.86h0.44c0.19,0,0.9-0.45,2.09-1.35v12.15l-0.83,0.28l-2.01,1.56l-1.7,0.41
	c-0.33,0.64-0.63,1.21-0.92,1.72h-81.6c-0.53-1.82-1.76-2.74-3.69-2.74h-0.87v2.74h-48.8c-0.16-3.72-1.64-5.6-4.42-5.6
	c-2.07,0-3.1,1.53-3.1,4.6v1H2116.7c0.31-0.97,0.6-2.09,0.87-3.39c0.69-2.43,0.95-4.31,1.04-5.82c-0.56-1.2-0.99-3.04-1.31-5.4
	c-0.26-2.5-0.92-3.86-2.02-4.27l-0.05-1.57c-0.98-0.35-1.3-1.02-0.9-1.87c0.18-0.36,0.91-0.52,2.01-0.41
	c1.09,0.11,2.16-0.06,3.06-0.87c0.39-0.85,0.55-1.5,0.51-2.08c0.09-0.54,0.24-1.17,0.65-2.02l0.35-0.72
	c2.36-1.13,3.64-2.77,4.05-4.61l2.18-0.77l1.68-1.79c1.39-0.48,2.63-1.02,3.52-1.83c-0.25-0.51-0.1-1.45,0.53-2.77
	c0.47-0.95,1.07-1.88,1.88-2.85c0.66-1.04,1.13-1.99,0.98-3.04C2136.53,750.25,2137.65,749.42,2138.93,747.86z M1766.27,747.86
	h51.97l-2.12,2.17l-1.73,0.62l-0.94,1.92c-0.26,0.53-0.63,0.8-0.83,0.73c-0.42-0.14-0.79,0.13-1.13,0.84l-0.43,0.88
	c-2.01,0.71-3.58,0.98-4.4,0.68c-0.61-0.22-1.35,0.34-1.95,1.56l-8.96-3.23c-5.09-1.83-10.52-1.51-16.06,1.01l-2.24-0.8
	c-1.42-0.52-3.24-0.74-5.16-0.21c-1.86,0.36-3.54,0.38-5.15-0.21c-0.62-0.22-0.85-0.72-0.51-1.43c-2.11,0.89-2.93,0.61-2.25-0.8
	c0.61-1.22,1.43-1.95,2.38-2.43C1766.57,748.7,1766.41,748.28,1766.27,747.86z M520.31,736.17h127.2c0.1,1.83,0.03,2.49,0.03,2.49
	c1.2-0.25,2.04-0.84,2.45-1.61c0.13-0.28,0.22-0.58,0.25-0.87h14.01l-4.78-11.22l1.44,0.49l0.91-4.44l-3.44-1.19l-0.36,1.74
	L625.44,645c0.53-0.39,1-1,1.42-1.82c-0.76-2.24-1.86-3.59-3.28-4.08l-0.76-0.26l-64.91-152.47l4.14-1.36l-1.45-4.07
	c-1.85,1.89-2.98,3.13-3.4,3.75l-96.69-227.14l20.5-12.66c19.19-11.85,38.69-23.23,58.49-34.14c0.05,0.23,0.1,0.48,0.14,0.73
	c1.13-0.84,2.02-1.61,2.69-2.3c53.73-29.45,109.62-55.4,167.36-77.54l8.15,3.17l2.53-1.74c2.72-1.89,4.2-4.27,4.42-7.13
	c33.23-12.29,67.05-23.34,101.42-33.07c49.93-14.13,100.99-25.5,153.01-33.95l-0.18,0.31c-0.52,1.06-1.51,1.41-2.73,0.97l-2,4.07
	c-2.74,0.97-3.98,1.41-3.98,1.41c-0.59,1.21-1.81,2.01-3.55,2.64c-1.93,0.54-3.39,1.44-4.61,2.24c1.12,1.11,1.18,1.84,0.55,2.68
	c-0.72,0.63-0.77,1.15-0.24,1.34c1.3-0.95,2.44-1.6,3.86-1.98c1.31-0.59,2.43-1.61,3.25-3.27c1.22,0.44,2.29-0.07,3.1-1.72
	c1.52-0.16,3.18-1.87,4.73-5.04c0.99-0.36,1.78-1.13,2.88-2.52c1.01-1.24,2.01-1.59,3.4-1.08l0.41-0.82
	c70.5-11.18,142.73-17,216.28-17c116.67,0,230.09,14.65,338.54,42.21c-1.14,0.75-2.57,2.09-4.31,4.03l3.65,3.94
	c2.45-3.16,3.69-5.53,3.69-7.12l-0.08-0.1c14.78,3.79,29.47,7.82,44.05,12.09c42.14,12.33,83.43,26.61,123.76,42.75
	c-0.27,0.5-0.41,1-0.41,1.51c0,1.53,0.73,3.62,2.19,6.3c1.49,2.67,2.37,4.59,2.66,5.74l2.23-2.87c0.29-0.76,0.44-1.34,0.44-1.72
	c0-0.38,0-0.77,0-1.15c0-1.34-0.87-3.35-2.64-6.01c67.53,27.28,132.34,59.78,193.95,96.97c0.34,0.35,0.76,0.6,1.28,0.77
	c8.5,5.14,16.94,10.38,25.32,15.7l-0.58,1.03h2.19l3.6,2.3l19.92,12.78c-58.53,137.4-140.11,329-199.58,468.67l-0.26-0.08
	c-0.62-0.22-1.14-0.62-1.38-1.11c-0.22-0.49-0.55-0.82-1.36-1.11l-5.43,0.31c-2.1,0.88-3.18,1.12-3.18,1.12l-1.52,0.68l-3.48-1.24
	c-2.03-0.74-3.83-0.97-4.7-0.67c0.82,1.74,1.92,2.96,3.34,3.47c1.63,0.58,4.21,0.69,7.65,0.49l2.24,0.81l1.65-0.44l3.84,2.42
	c0.16-0.32,0.47-0.59,0.92-0.76l-2.14,5h4.42l-0.58,1.23c1.64,2.03,1.36,5.03-0.91,8.74c-2.2,3.52-3.84,6.43-4.79,8.36
	c-1.19,2.45-1.72,4.53-1.51,6.04c0.62,0.22,1.62-0.86,2.82-3.31l1.44-2.98l0.94-1.92c0.94-1.93,2.44-3.04,4.28-3.4
	c1.94-0.54,3.2-2.15,3.58-4.9l4.49,1.62c2.23,0.8,3.83,0.97,5,0.56c1.07-0.23,3.07,0.08,5.92,1.1c0.81,0.3,0.88,1.15,0.28,2.37
	c-0.94,1.93-1.6,2.31-2.16,1.48l-0.44,0.88c1.65,0.59,3.4,0.4,5.59-0.66c2.29-1.24,5.28-0.99,8.94,0.33
	c0.82,0.29,1.31,0.26,1.49-0.08c0.17-0.36,0.65-0.38,1.27-0.16l1.65-0.44l3.26,1.18l1.82,1.68c2.02-0.71,3.5-0.79,4.1-0.57
	l-0.41,0.86l0.36,4.67l2.23,0.8l-1.36,2.81l-0.51,1.05c-0.11,3.68,0.34,5.68,0.96,5.91c-0.6,1.23-1.02,2.1-1.6,2.31
	c-0.49,0.02-1.13,0.84-1.72,2.06c-0.62,1.22-0.54,2.06,0.07,2.29l2.16-1.49l1.36-2.81c0.94-1.93,1.65-2.9,2.23-3.11
	c0.37-0.27,1.22-2.02,1.94-5.48l-1.73-1.85l2.31-4.74c0.94-1.92,2-3.59,3.17-5.04c1.18-1.42,2.45-3.03,4.19-4.66
	c0.6-1.22,0.99-2.53,1-3.55c0.11-1.2,0.41-2.33,1.02-3.56c0.59-1.22,1.31-2.2,2.06-2.74c0.4-0.23,0.76-0.56,1.04-0.9h199.13
	l-6.02,2.01l0.37,1.6c0.51,0.72,2.53,1.34,6.06,1.85l0.54-5.46h25.41l1.79,2.47l2.05-2.47h80.63l-0.41,0.49
	c-1.36,1.77-2.69,3.83-3.72,5.99c-0.66,1.32-1.51,2.42-2.46,3.36c-1.08,0.88-2.23,1.87-3.28,3.04l-0.84-0.3l-2.22,4.56l-2.17,0.77
	l-1.64,1.65c0.41,0.15,0.57,0.5,0.34,0.98c-0.4,0.84-0.77,1.27-1.03,1.46c-0.39,0.14-0.83,0.69-1.23,1.53
	c-0.99-0.35-1.66-0.31-1.84,0.05c-0.23,0.47-1.02,0.76-2.16,0.76c0.32,0.68,0.23,1.22,0.03,1.57c-0.4,0.85-1.03,1.46-2.09,1.64
	c-0.87,0.12-1.64,0.68-2.06,1.52c0.75,0.83,1.13,1.4,0.9,1.87c-0.18,0.35,0.03,1.28,0.59,2.47l-0.98,2.05
	c-1.23,2.52-2.67,4.11-4.06,4.6c0.75,0.84,0.77,2.12-0.04,3.8l-0.99,2.04c-1.38,0.48-2.41,1.24-2.93,2.33l-0.16,0.31H1993.7
	c-0.1-0.91-0.17-1.8-0.21-2.67c-0.1-1.58-0.41-2.74-0.92-3.46c-1.05-1.45-2.93-1.86-5.66-1.3l-0.19,7.43h-311.72l107.25-251.95
	c-23.71-14.14-47.95-27.43-72.65-39.83l3.22-5.48l2.67,2.85c3.54-4.94,5.3-8.2,5.3-9.71c0-1.16-0.13-2.12-0.43-2.88
	c-4.13,3.07-7.41,6.4-9.76,10.04c-0.93,1.44-1.75,2.92-2.45,4.45c-28.44-14.22-57.5-27.25-87.12-39.04
	c-54.57-21.71-111.2-39.33-169.51-52.45c-6.71,16.84-16.8,32-29.42,44.65l-0.11,0.11c-23.99,23.96-57.03,38.76-93.44,38.76
	c-22.07,0-42.91-5.44-61.25-15.07l0.05-0.1c0.33-0.67,0.26-1.09-0.13-1.23l1.82-2.08l1.41,0.54l1.23-2.44
	c0.32-0.61,0.93-1.02,1.73-1.21c-0.01,0.36-0.03,0.73-0.03,1.12c0,3.05,0.73,5.73,2.21,8.03c0.3-0.4,0.91-1.06,1.79-1.99
	c0.88-0.98,1.77-2.03,2.65-3.18c0.62-0.8,1.21-1.61,1.75-2.5c3.62,1.36,5.55,1.7,5.88,1.04c0.25-0.48,1.37-0.71,3.41-0.77l1.43-2.79
	l-1.13-0.43c-0.9-0.34-1.24-0.85-0.85-1.62c0.46-0.89,1.14-1.02,2.03-0.68l0.33-0.68c-0.5-0.19-1-0.11-1.73,0.14
	c-0.56,0.18-1.56,0.33-2.68,0.44c-2.3,0.04-3.36,0.04-3.36,0.04l-1.54-0.59c-0.06-0.43-0.21-1.07-0.41-1.93
	c-2.08-1.91-3.55-2.85-4.46-2.85c-1.75,0-3.06,0.85-3.95,2.54c-0.02-2.2-0.14-3.97-0.4-5.43c-0.27-1.55,0.17-3.62,1.35-5.93
	l1.23-2.42l-2.3,1.23l0.02,1.46c-0.62,1.2-1.06,2.08-1.66,2.64c-0.55,0.47-0.86,1.4-1.09,2.75l1.07,1.18l-1.8,3.53
	c-0.62,1.21-1.49,2.33-2.89,3.25c-1.25,0.98-2.14,1.82-2.52,2.59c-0.46,0.88-0.54,1.64-0.43,2.34c0.18,0.86,0.09,1.62-0.35,2.5
	l-0.56,1.1l-1.31,0.09c-0.97-0.56-1.94-1.13-2.91-1.71c0.61,0.17,1.14,0.19,1.68,0c-1.41-0.52-2.52-1.34-3.39-2.34
	c-0.81-1.08-2-1.79-3.39-2.32c-1.16-0.43-2.19-0.73-3.14-0.76c-5.69-4.06-11.06-8.56-16.04-13.45c1.45-1.02,2.32-1.83,2.62-2.39
	c0.55-1.11,1.68-3.31,3.52-6.95c0.62-1.2,1.39-2.1,2.3-2.68c0.73-0.25,1.36-1.19,2.2-2.85c1.2,0.06,1.93-0.45,2.31-1.23
	c0.39-0.77,1.25-1.24,2.3-1.23l0.35-0.66c0.39-0.78,1.47-1.41,3.13-1.97c1.71-0.67,2.78-1.56,3.35-2.67
	c0.21-0.44,0.18-1.24-0.33-2.36c-0.4,0.78-0.87,1.39-1.35,1.73c-0.43,0.24-0.78,0.62-0.94,0.96c-0.74,0.25-1.22,0.59-1.65,0.82
	c-0.48,0.35-1.1,0.64-1.64,0.82l-1.72,1.59l-1.7,0.02l-0.34,0.66c-0.57,1.1-1.27,1.62-2.3,1.24l-0.9,1.76
	c-1.35,0.55-2.51,1.02-3.67,1.49c-1.03,0.54-2.14,0.9-3.32,0.85c0.05,1.07-0.11,1.4-0.62,1.21c-0.39-0.14-0.76-0.02-0.98,0.42
	l0.36,0.8c0.4-0.77,0.88-1.12,1.38-0.92c0.39,0.15,0.79,0.56,1.07,1.19c-0.9,0.58-1.38,0.92-1.38,0.92
	c-0.18,0.33-0.21,0.71-0.07,1.03c0.15,0.31,0.16,0.58-0.06,1.02c-1.24,2.42-1.9,4.02-1.82,5.09l-0.65-0.23l-0.62,1.21l-0.1,0.07
	c-19.04-19.21-32.23-44.16-36.72-71.96c-104.21,0.22-204.89,14.34-300.27,40.59c-3.34,0.92-6.69,1.86-10.02,2.81l0.33-1.61
	l-3.85-1.33l-0.85,4.2c-62.01,17.96-121.89,41.07-179.1,68.85l0.02-0.03c-0.4-0.4-1.06-0.77-1.96-1.09l0.42-0.88
	c0.28-0.58,1.12-0.66,2.62-0.25l1.87-3.83l-2.61,0.22l-1.23-0.44c-1.42-0.51-1.86-1.1-1.12-1.63c0.68-0.38,0.24-0.96-1.2-1.47
	c-0.81-0.29-2.46,0.15-5.23,1.41c-2.77,1.26-4.39,2.13-4.73,2.83l-1.53,0.68l-1.23-0.44c-3.2,3.17-6.95,4.49-10.97,3.87l1.73-0.6
	c0.6-1.25-0.69-2.52-3.55-3.55c0.95-1.93,0.56-3.11-0.86-3.62l-1.22-0.44l-1.37,2.8c2.26,4.73,3.92,7.2,5.56,7.78
	c0.61,0.22,1.39,0.09,2.14-0.45c0.66-0.4,1.25-0.59,2.06-0.31c4.61-0.6,7.38-1.86,8.31-3.8l1.23,0.44c0.61,0.22,0.76,0.9,0.33,1.78
	c-0.51,1.05,0.14,1.69,1.57,2.21l1.22,0.44l0.42-0.88c0.6-1.23,0.9-2.36,0.76-3.02c-0.07-0.85,0.24-1.97,0.84-3.2l0.41-0.88
	c3.08,2.54,4.64,4.75,4.68,6.63c-0.02,0.33,0.02,0.65,0.11,0.95c-11.52,5.62-22.93,11.44-34.23,17.45l0.65-3.15l-3.42-1.17
	l-0.92,4.42l2.12,0.73c-9.17,4.89-18.25,9.89-27.26,15.01l49.97,117.38l-0.87-0.24l-0.9-0.17l-1.37,2.72
	c0.56,0.1,1.08,0.23,1.57,0.4c1.2,0.45,2.17,0.6,2.94,0.49l2.11,4.96c-1.16,0.52-2.67,1.28-4.69,2.31c-2.68,1.53-4.04,2.63-4.43,3.4
	c0.38,0.84,0.62,1.4,0.62,1.4c1.58,0.59,3.68,0.69,5.76,0.31c2.15-0.57,3.9-0.83,4.97-1.34c-1.53-0.6-1.93-1.4-0.8-2.72l37.29,87.6
	c-1.5-0.26-3.67,0.78-6.76,3.2c-2.26,0.76-3.31,1.76-2.7,2.67c1.87,0.01,3.71-0.44,4.88-1.16c1.48-0.81,3.19-1.54,5.65-2.22
	l14.02,32.94h-16.66l0.06-0.14l-0.08,0.14h-8.36c-1.11-0.36-2.02-0.36-2.76,0H553.44l-4.48-1.74l-2.03,1.39
	c-0.12,0.08-0.25,0.2-0.38,0.35H409.76c0.83-0.76,1.7-1.58,2.65-2.46c2.3-2.54,4.05-4.67,5.07-6.76c0.38-0.78,0.15-1.78-0.5-2.63
	c-0.96-0.96-1.07-2.22-0.18-4.05c3.44-1.22,5.34-1.45,6.55-1c1.01-2.1,2.55-3.07,5.48-3.24c2.51-0.02,4.53-0.52,6.25-1.12l2.91-2.32
	l7.18-2.31l1.4-2.88l3.33,1.21c0.9-1.83,2.67-3.33,6.12-4.53l0.64-1.32c4.41-3.92,9.38-6.1,14.51-6.41
	c5.56-0.45,11.07-1.53,17.52-3.8l6.67,2.41l4.72-1.66c0.91,0.32,1.7,0.91,2.05,1.65c0.35,0.74,0.83,1.22,2.04,1.65l1.82,0.66
	c4.53-4.18,9.03-6.85,13.77-8.52L520.31,736.17z M91.21,736.17h0.92l-0.44,0.18C91.52,736.3,91.36,736.24,91.21,736.17z
	 M55.54,784.71v-14.62c1.92-0.93,3.37-1.99,4.49-3.15l0.56,1.02l2.58-1.06c0.87-0.23,1.51-0.37,2.21-0.16
	c0.69,0.21,1.15,0.03,1.41-0.59c-2.6-0.79-3.81-1.15-3.81-1.15c0.62-1.5,0.28-2.59-0.93-2.97l-1.41,0.59l-3.63-1.11
	c-0.48,0.47-0.98,0.97-1.47,1.48v-26.8h32.84l0.25,0.08c2.29,0.71,4.88,0.68,7.78-0.08h130.31c-3.46,4.92-5.95,9.42-7.58,13.36
	c-0.43,1.05-0.81,2.43-1,3.89c-0.38,1.39-0.69,2.63-1.13,3.67c1.58-0.02,4.12,0.42,7.93,1.58l-1.05-0.32
	c0.5-1.19,1.2-1.48,2.23-1.17c0.86,0.26,1.51,0.13,1.76-0.47l0.31-0.75c-1.21-0.37-2.28-0.18-2.92,0.45
	c-0.72,0.8-1.53,0.88-2.73,0.5c-1.91-0.57-2.76-1.33-2.27-2.52l2.57-1.06c-0.78-1.42-1.04-2.66-0.61-3.71
	c0.94-0.38,2.08-2.22,3.43-5.49c1.09-2.67,2.73-5.21,5.22-7.46l0.48-0.5h181.51c-0.77,0.93-1.36,1.85-1.79,2.7l-1.39,2.87l5.15,1.86
	l-1.06-2.22c0.4-0.79,2.37-1.92,5.37-2.97l2.24-2.23h91.18l-0.1,0c-1.71,0.61-2.82,1.43-3.82,2c-1.11,0.82-3.14,1.32-5.63,1.34
	l-1.52-0.54c-4.55-1.64-7.52-2.1-9.24-1.5l-3.04-1.09l-0.63,1.31l-1.82-0.66l-2.9,2.32l-3.34-1.2l-6.55,1.02
	c-2.13-0.76-3.59-0.69-3.97,0.09c-0.51,1.05-1.67,1.23-3.79,0.47c-3.83,1.99-7.94,3.87-12.67,5.54c-3.02,1.06-5.72,2.23-8.43,3.41
	c-2.53,1.54-4.69,2.3-6.09,3.01c-1.78,3.65-7.02,6.36-15.46,7.61l-0.76,1.56c-0.9,1.82-2,2.65-3.22,2.21
	c-0.91-0.33-1.89,0.23-2.91,2.32c-2.51,0.02-5.55,0.45-8.3,0.99c-2.89,0.8-5.52,1.07-8.45,1.24l-3.32-1.2l-0.64,1.31l-1.51-0.55
	c-3.32-1.2-5.94-2.45-7.93-3.47c-2.18-1.4-4.16-2.42-6.28-3.19c-2.13-0.76-4.07-1.15-5.53-1.07c-1.03-0.07-2.85-0.73-4.47-2.53
	c-1.21-0.44-1.77-0.03-2.15,0.76c-0.51,1.04-0.29,2.05,1.28,3.21c1.39,0.82,2.52,2.15,2.93,3.51l3.33,1.2
	c6.66,2.4,10.83,4.82,11.94,7.68c3.13-1.32,6.25-1.12,9.57,0.08l1.82,0.65c1.23,2.59,1.38,4.49,0.03,5.83
	c-1.25,1.08-2.44,2.8-3.32,4.62l-0.1,0.22H96.32c0.03-0.34,0.13-0.71,0.29-1.1c0.48-1.2,0.79-1.94,1.04-2.54
	c-0.33-0.6-1.94-0.93-5.03-0.52l-2.41-1.75l0.68-1.64l-2.27,0.31l-0.31,0.75c0.98,0.95,1.88,2.07,2.77,3.69
	c0.52,0.83,0.74,1.77,0.7,2.79H55.54z M514.97,313.94l-3-1.02l-0.9,4.42l3,1.03L514.97,313.94z M524.14,302.84l-3.01-1.02l2.45,3.8
	L524.14,302.84z M523.08,269.85l-5.14-1.76l1.78,7.13c1.93-2.1,3-3.5,3.14-4.25L523.08,269.85z M531,253.59
	c-0.3-4.45-2.32-7.33-6.03-8.61c-2.85-0.97-5.03-0.73-6.56,0.75c0.28,0.08,0.71,0.62,1.28,1.6c0.55,1.01,1.28,2.02,2.11,3.09
	c0.85,1.1,1.72,2.09,2.6,2.99c0.89,0.9,1.61,1.44,2.19,1.62C527.72,255.43,529.2,254.95,531,253.59z M547.65,246.25l-2.82,2.58
	l1.58,3.52l2.7-2.04L547.65,246.25z M560.84,248.99l-3.85-1.33l-1.01,5l3.84,1.32L560.84,248.99z M489.54,771.85l4.05-2.83
	l-2.45-5.87l-4.06,2.8L489.54,771.85z M374.5,747.83l2.18,5.25l-4.56,3.16l-2.16-5.25L374.5,747.83z M618.82,480.88
	c0.41,2.51,1.75,4.16,4.04,4.93l6.84,2.36c-0.23-3.26-2.64-5.65-7.23-7.23C620.76,480.36,619.53,480.32,618.82,480.88z
	 M630.8,516.41l2.58,0.88l-2-3.64L630.8,516.41z M615.23,534.23c0,0,0.38,1.9,1.14,5.71l3.24-2.45c-0.92-1.51-1.56-2.5-1.89-3.03
	c-0.36-0.51-0.67-0.83-0.98-0.93l-1.28-0.43L615.23,534.23z M640.3,613.38c1.22,0.03,2.24,0.97,3.11,2.84
	c0.83,1.88,1.66,3.74,2.49,5.59l2.74-2.01c-2.52-5.63-4.49-8.66-5.92-9.16c-0.3-0.1-0.58-0.19-0.88-0.3c-0.28-0.08-0.6,0-0.98,0.26
	L640.3,613.38z M624.88,587.92l3.41,1.2l0.92-4.43l-3.43-1.18L624.88,587.92z M647.75,659.84l1.58,3.5l-1-6.29L647.75,659.84z
	 M626.92,618.3l3.11-1.9l-1.99-3.66l-2.7,2.04L626.92,618.3z M585.53,462.21l3.42,1.18l0.91-4.44l-3.43-1.18L585.53,462.21z
	 M575.3,483.01l1.57,3.52l-0.89-6.84L575.3,483.01z M544.59,449.37c4.21,0.26,7.31,0.52,9.22,0.79c1.93,0.26,2.92,0.39,2.92,0.39
	c2.84,0.99,4.94,2.7,6.3,5.13l3.1-1.9c-0.59-4.54-2.88-7.51-6.88-8.87l-8.14-2.8c0,0-0.36,0.26-1.08,0.81
	c-0.73,0.54-1.52,1.07-2.39,1.56c-0.86,0.51-1.58,1.05-2.16,1.61c-0.58,0.61-0.93,1.28-1.11,2.01L544.59,449.37z M846.97,108.14
	l-3.84-1.33l-1.01,5l3.85,1.3L846.97,108.14z M868.95,94.9c-1.8-0.23-3.79-0.19-5.97,0.03c-2.2,0.25-4.76,0.86-7.71,1.82
	c0.77,2.24,2.3,3.73,4.57,4.53l2.14,0.73c0,0,0.34-0.16,1.03-0.52c0.69-0.38,1.72-0.89,3.07-1.62c1.46-1.09,2.37-2.55,2.75-4.41
	L868.95,94.9z M912.2,121l-3.84-1.31l-0.91,4.42l3.85,1.31L912.2,121z M913.01,96.95l-1.29-0.44c-0.28-0.1-0.69,0.05-1.23,0.47
	c-0.55,0.4-1.33,0.84-2.31,1.29l1.43,4.03c2.05-2.46,3.11-3.85,3.17-4.25L913.01,96.95z M988.99,70.79l-0.94,0.26
	c-0.59-0.18-1.64-1.73-3.19-4.64l-3.82,5.22c1.83,2.99,2.88,4.54,3.16,4.65l1.41-0.11c2.25-2.01,3.44-3.38,3.59-4.12L988.99,70.79z
	 M1013.79,86.4c-0.74,0.55-1.84,0.75-3.35,0.64c-1.49-0.13-3.1-0.17-4.79-0.14c-1.67,0-3.25,0.26-4.73,0.72
	c-1.45,0.5-2.64,1.38-3.51,2.67l1.58,3.49l14.92-7.93L1013.79,86.4z M988.33,393.3c1.99,0.67,3.5,0,4.52-2.01l-2-3.67
	c-2.35-0.4-4.3-0.28-5.8,0.4c-1.51,0.66-2.26,1.78-2.29,3.36L988.33,393.3z M972.15,407.33l2.82-2.61l-1.57-3.49l-3.16,1.87
	L972.15,407.33z M914.68,381.11c0.58,0.18,1.45,0.78,2.62,1.77c1.18,1.02,2.23,2.16,3.2,3.48c0.94,1.31,2.01,2.47,3.18,3.45
	c1.17,1.02,2.19,1.64,3.05,1.94c1.99,0.68,4.08,0.21,6.25-1.42c-2.56-2.45-4.9-4.44-7.04-5.96c-2.14-1.51-4.06-2.56-5.77-3.16
	C917.88,380.4,916.07,380.38,914.68,381.11z M922.69,415.88l2.71-2.04l-1.46-4.06l-3.25,2.45L922.69,415.88z M892.26,405.45
	l2.71-2.04l-1.45-4.07l-3.26,2.46L892.26,405.45z M1042.02,60.07l4.05,0.19l0.58-5.75l-4.9-0.22L1042.02,60.07z M1012.62,79.3
	l-3.37,4.06l-3.54-4.89l3.37-4.06L1012.62,79.3z M1469.93,102.35v6.31h4.9v-6.31H1469.93z M1474.83,74.73
	c-2.85-0.51-5.08,3.69-6.71,12.64h0.62c4.07,0,6.1-3.18,6.1-9.47V74.73z M1411.38,104.72c0.41,3.17,2.03,4.74,4.88,4.74
	c2.84,0,4.48-1.57,4.88-4.74v-5.5c0-3.17-1.02-5.78-3.04-7.9L1411.38,104.72z M1364.39,52.64c-2.43,4.21-3.66,6.58-3.66,7.1
	l0.62,1.59l6.69-8.69H1364.39z M1327.78,57.38c-0.41,1.05-0.59,2.9-0.59,5.53c0,4.2,2.45,12.37,7.33,24.47l6.69-8.68
	c-0.79-2.12-1.62-4.34-2.45-6.73c-0.79-2.36-1.73-4.58-2.72-6.69c-1.04-2.11-2.25-3.94-3.66-5.53
	C1330.94,58.18,1329.41,57.38,1327.78,57.38z M1304.6,91.32l-0.61,2.35c0,1.07,1.22,3.17,3.67,6.33l3.04-3.95
	c-2.44-3.16-4.28-4.73-5.49-4.73H1304.6z M1310.71,74.73l3.66,3.96l3.04-3.96l-3.04-4.72L1310.71,74.73z M1284.48,78.7l3.05,4.72
	l3.65-4.72l-3.65-3.96L1284.48,78.7z M1242.37,76.32v7.1h4.88v-7.1H1242.37z M1227.73,87.38v3.94l3.06-7.9L1227.73,87.38z
	 M1237.49,57.38l6.72,3.95v-1.59c0-0.52-1.23-2.89-3.68-7.1L1237.49,57.38z M1200.87,48.7c-2.43,0.51-3.66,2.64-3.66,6.32
	c0,3.68,1.23,5.77,3.66,6.31l3.06-3.95l0.61-2.36C1204.54,55.02,1203.33,52.91,1200.87,48.7z M1172.2,42.4v6.31h4.9V42.4H1172.2z
	 M1336.3,467.97c-1.76,3.07-2.66,4.97-2.66,5.74l0.45,1.15l4.87-4.01L1336.3,467.97z M1306.17,478.88v4.58h3.55v-4.58H1306.17z
	 M1323.45,455.35c-0.89,0-1.62,0.49-2.21,1.45c-0.59,0.96-1.12,2.01-1.57,3.14c-0.43,1.14-0.88,2.21-1.32,3.16
	c-0.44,0.96-0.97,1.61-1.56,2.01l4.86,2.85l2.68-12.61H1323.45z M1297.73,467.97c-1.76,1.53-2.66,3.83-2.66,6.89
	c0,2.67,0.9,4.58,2.66,5.74l2.24-2.89v-4C1299.97,470.64,1299.23,468.75,1297.73,467.97z M1292.87,445.6
	c-1.78,1.15-2.66,3.07-2.66,5.74c0,1.92,0.89,3.25,2.66,4.01l2.21-2.85l0.43-1.15C1295.51,450.97,1294.63,449.05,1292.87,445.6z
	 M1267.16,441.6v4h3.54v-4H1267.16z M1232.11,342.99l-0.43,1.13c0,3.07,1.47,4.6,4.42,4.6h0.91v-2.88c-2.08-2.28-3.4-3.43-4-3.43
	L1232.11,342.99z M1202.87,351.57v2.32c0,0,0.89,1.53,2.66,4.57l2.23-2.86c-2.37-2.67-3.7-4.04-3.99-4.04H1202.87z M1256.51,273.62
	l-0.44,2.85c0,3.44,0.89,5.74,2.65,6.88c1.79-3.06,2.66-4.97,2.66-5.74v-1.14c-2.07-1.91-3.4-2.85-3.99-2.85H1256.51z
	 M1137.24,348.72l0.44,1.13c0,0.8-0.89,2.49-2.67,5.18l4.91,3.43c1.77-3.05,2.65-4.78,2.65-5.15l-0.45-1.75
	c-2.07-2.26-3.4-3.42-3.98-3.42L1137.24,348.72z M1086.27,383.13v1.14c0,0.75,0.88,2.67,2.67,5.73l2.21-4.02
	c-2.66-1.91-3.99-2.85-3.99-2.85H1086.27z M1096.01,351.57c-1.76,1.55-2.65,3.85-2.65,6.9c0,2.69,0.89,4.78,2.65,6.32l2.66-3.44
	v-3.43C1098.68,355.21,1097.79,353.11,1096.01,351.57z M779.24,119.22c-0.91-2.16-2.54-2.44-4.91-0.8
	c-3.37,2.34-4.27,5.47-2.62,9.41l1.07,0.96l8.11-5.63L779.24,119.22z M816.86,98.2l-1.17,5.04l4.15,2.18l1.42-6.03L816.86,98.2z
	 M766.02,425.14c0.68,2.59,2.59,4.44,5.73,5.52c3.14,1.08,5.09-0.22,5.85-3.92c0.53-2.6-0.34-4.29-2.63-5.07l-5.57-1.91
	c-2.32,2.38-3.52,3.77-3.6,4.12L766.02,425.14z M744.12,449.08c0.65-0.19,1.9,1.24,3.71,4.23l3.82-5.22c-1.9-2.61-3-4-3.27-4.09
	l-0.87-0.29c-2.23,2.01-3.42,3.36-3.58,4.1L744.12,449.08z M693.76,670.26c-0.16,0.75,0.25,2.64,1.13,5.73l3.14-1.89
	c-1.83-3-2.74-4.5-2.74-4.5l-1.4,0.1L693.76,670.26z M677.35,696.68l3.44,1.16l0.9-4.44l-3.43-1.16L677.35,696.68z M658.16,691.88
	c0.26,1.67,0.82,2.66,1.67,2.93c0,0,0.69-0.26,2.01-0.8c1.34-0.52,3.32-1.33,6-2.39c0.01-1.59-0.7-2.59-2.12-3.1
	C665.72,688.53,663.19,689.63,658.16,691.88z M1761.14,178.86v5.17h3.99v-5.17H1761.14z M1745.63,154.78
	c0.3,2.28,0.79,4.77,1.54,7.45c0.74,2.68,1.84,5.73,3.32,9.17c1.49-1.52,2.22-3.8,2.22-6.87v-2.86c0,0-0.22-0.39-0.68-1.15
	c-0.44-0.77-1.09-1.92-1.98-3.45c-1.19-1.53-2.52-2.28-4-2.28H1745.63z M1680,152.49h2.67l-2.67-2.87V152.49z M1642.31,128.41v4.58
	h3.55v-4.58H1642.31z M1546.82,93.67V100h4.89v-6.33H1546.82z M1684.56,467.95l2.66,3.42l2.21-3.42l-2.21-2.88L1684.56,467.95z
	 M1676.57,458.77c-1.18,0-2.5,0.95-3.97,2.85c-1.49,1.9-2.24,3.08-2.24,3.45l4.89,2.88c0.89-0.39,1.48-1.06,1.77-2.01
	c0.29-0.96,0.44-2.22,0.44-3.74v-1.71v-1.72H1676.57z M1655.28,474.25c7.71-4.2,11.67-10.52,11.99-18.91c0-3.84-1.49-6.89-4.43-9.17
	L1655.28,474.25z M1604.76,436.99l4.87,6.3l2.21-3.45v-2.85c0.61-2.69-0.14-4.79-2.21-6.3L1604.76,436.99z M1605.63,411.77
	c-2.37,0-3.54,2.09-3.54,6.3c0,3.06,0.89,5.15,2.66,6.3c0-0.36,0.21-0.86,0.64-1.41c0.46-0.59,1.04-1.25,1.79-2.02
	c0.74-0.76,1.33-1.63,1.76-2.58c0.46-0.97,0.68-1.82,0.68-2.57v-1.17C1606.96,412.71,1605.63,411.77,1605.63,411.77z
	 M1540.47,388.26v4.57h3.55v-4.57H1540.47z M1913.31,274.69v-4.56h-3.52v4.56H1913.31z M1948.78,289.62h-2.66l2.66,2.85V289.62z
	 M1834,445.44c0.31,0,1.64-1.14,4-3.44l-2.22-3.43c-1.79,3.06-2.66,4.97-2.66,5.74v1.14H1834z M1794.54,504.51v-3.46l-2.2,3.46
	H1794.54z M1871.7,420.78v-4.01l-2.23,4.01H1871.7z M1830.9,482.71c1.78-0.77,2.51-2.87,2.22-6.3v-3.45l-4.87,6.88L1830.9,482.71z
	 M1847.75,475.82v-5.14l-4.89,2.27c2.38,2.3,3.7,3.45,4,3.45L1847.75,475.82z M1861.95,463.8v-3.45l-2.23,3.45H1861.95z
	 M1876.57,460.35v-2.3l-2.66,2.3H1876.57z M1800.76,592.8v-4.01h-3.55v4.01H1800.76z M1811.39,601.39v-4.02l-2.21,4.02H1811.39z
	 M1736.26,767.09v4.6h3.55v-4.6H1736.26z M1702.57,765.37c-1.76,1.15-2.66,3.25-2.66,6.32v9.15c2.39-1.12,3.55-4.77,3.55-10.88
	C1703.46,767.65,1703.18,766.13,1702.57,765.37z M1679.08,789.46v3.43l2.22-3.43H1679.08z M1828.49,229.51v7.1h-4.89v-7.1H1828.49z
	 M1747.9,717.23v6.32l2.66-6.32H1747.9z M1708.01,718.96v4.58h3.53v-4.58H1708.01z M2260.3,752.94v-4.59h-3.55v4.59H2260.3z
	 M2273.18,763.27c1.77-0.77,2.64-2.67,2.64-5.72c0-3.07-0.87-5.17-2.64-6.32l-2.24,3.43v2.3
	C2270.94,760.42,2271.68,762.5,2273.18,763.27z M2258.96,787.92v-3.43l-2.22,3.43H2258.96z M2293.13,780.48v-4.59h-3.55v4.59
	H2293.13z M2315.28,763.27c1.77-2.29,2.67-3.82,2.67-4.59l-0.43-1.14l-4.44,2.87L2315.28,763.27z M1747.71,732.18l2.23,0.82
	l0.94-1.94l-2.23-0.8L1747.71,732.18z M1763.31,676.01l1.37-2.81c-1.43-0.51-2.5-0.28-3.19,1.12
	C1761.25,674.86,1761.9,675.5,1763.31,676.01z M1744.56,687.76l3.52-7.22c0.3,0.16,0.67,0.32,1.08,0.47l2.38-2.45
	c2.1-0.88,3.84-1.5,5.08-2.08c1.13-0.83,2.69-1.09,4.46-1.28l-0.43,0.88c-0.34,0.7-1.08,1.25-2.16,1.5l-1.88,3.85l-3.76-0.12
	l-0.44,0.88l-1.86,3.85c-1.44-0.52-2.99-0.26-4.21,0.74C1745.77,687.16,1745.19,687.5,1744.56,687.76z M1722.9,732.25l1.87-3.84
	c1.5,0.41,2.34,0.32,2.61-0.25l0.44-0.88c-0.91-0.33-1.56-0.69-1.98-1.1l1.41-2.88c0.91,0.81,1.33,1.68,1.24,2.58
	c0.06,1.86,1.61,4.07,4.68,6.62l0.44-0.88c0.59-1.22,0.89-2.35,0.83-3.2c-0.15-0.68,0.16-1.79,0.76-3.03l0.43-0.87l1.22,0.44
	c1.42,0.51,2.07,1.16,1.55,2.21c-0.41,0.87-0.28,1.54,0.34,1.77l1.22,0.44c0.93-1.93,3.71-3.19,8.3-3.8
	c0.82,0.29,1.4,0.09,2.07-0.29c0.75-0.56,1.52-0.68,2.14-0.46c1.62,0.58,3.3,3.03,5.55,7.77l-1.36,2.8l-1.23-0.44
	c-1.42-0.52-1.81-1.68-0.87-3.62c-2.86-1.02-4.14-2.31-3.55-3.54l1.75-0.61c-4.02-0.62-7.78,0.7-11,3.87l-1.21-0.44l-1.54,0.67
	c-0.34,0.71-1.95,1.56-4.72,2.83c-2.78,1.27-4.42,1.71-5.23,1.41c-1.42-0.51-1.86-1.08-1.2-1.46c0.75-0.56,0.31-1.13-1.13-1.64
	l-1.22-0.43L1722.9,732.25z M1706.17,766.62l1.28-2.64c0.74-0.48,1.45-1.04,2.11-1.66l2.25,0.81c0.35,0.75,0.42,1.59,0.07,2.29
	c0,0-0.65,0.38-1.95,1.56L1706.17,766.62z M733.93,780.53l-0.98,1.91c-0.62,1.22-0.97,1.92-0.97,1.92l0.44-0.88L733.93,780.53z
	 M699.71,714.23l-0.6,1.17c-0.51,0.99-0.6,1.78-0.35,2.22l-0.12,0.59c0.95,2.71,2.59,4.45,4.87,5.23c2.29,0.77,4.38,0.31,6.24-1.42
	c-0.39-2.51-1.58-4.11-3.58-4.81c-3.6-1.23-5.81-1.85-6.62-1.92L699.71,714.23z M718.79,754.21c-0.78,1.56-1.54,1.97-2.22,1.72
	c-0.92-0.34-2.2,0.09-3.55,1.2l1.13,0.42c2.46,0.94,4.08,0.4,5.18-1.74C718.64,755.55,718.39,754.99,718.79,754.21z M709.15,753.12
	l-1.35-0.52c-1.07,0.53-1.82,0.94-2.21,1.72c-0.4,0.76-0.38,1.24-0.12,1.79c0.03,0.48-0.04,1.14-0.34,1.73
	c0.3-0.59,0.82-1.09,1.47-1.31c0.63-0.2,1.27-0.89,1.94-2.25L709.15,753.12z M699.9,762.32l1.07-2.12c0.69-1.36,1.09-2.14,1.09-2.14
	l-0.49,0.97L699.9,762.32z M675.43,671.98l1.82-3.57c0.41-0.26,0.79-0.68,1.07-1.26l0.49-0.96l1.4,3.06
	c-0.29,0.58-0.82,1.07-1.46,1.29c-0.65,0.22-1.18,0.71-1.47,1.29L675.43,671.98z M639.9,741.73l1.53-3c0.52,0.58,0.79,1.2,0.83,1.86
	l9.42,4.71c0.67,0.26,1.15,0.9,1.21,1.85c0.15,0.74,0.41,1.3,1.31,1.64c2.47,0.93,3.4,1.74,3,2.52l3.33,2.42l0.31,5.19
	c1.58,0.61,2.94,1.11,4.28,1.62c1.12,0.43,1.31,1.64,0.22,3.78l-8.86-8.42c0,0-0.65,0.2-1.94,0.65c-0.3,0.58-0.92,1.26-2.21,1.7
	l-1.4-3.06l0.55-3.72c-1.49-1.26-2.57-2.35-3.48-3.16c-1.16-0.9-2.11-2.18-3.23-4.22c-1.17-1.36-2.21-1.98-3.3-1.93
	C640.94,742.17,640.42,742.04,639.9,741.73z M682.3,492.21l-2.23-0.82l-0.94,1.93l2.24,0.81L682.3,492.21z M655.34,491.55
	l-1.22-0.43c-0.82-0.3-1.62,0.85-2.81,3.3l-2.23-0.8c-1.28,2.63-1.27,4.07,0.36,4.66l0.43-0.88c0.6-1.23,1.42-1.95,2.82-1.86
	c1.18,0.01,2.13-0.47,2.75-1.69L655.34,491.55z M659.91,503.3l-1.01-0.36l-0.93,1.92l1.01,0.37L659.91,503.3z M622.25,489.71
	l-2.25-0.8l-1.36,2.8l2.23,0.81L622.25,489.71z M652.53,505.17l-1.22-0.44c0.83,0.29-0.42,0.88-3.4,2.06l1.01,0.38
	C648.12,506.87,649.45,506.11,652.53,505.17z M723.84,457.77l-1.29,2.65c-0.73,0.48-1.43,1.02-2.1,1.66l-2.24-0.81
	c-0.35-0.75-0.41-1.59-0.09-2.29c0,0,0.68-0.38,1.97-1.57L723.84,457.77z M612.02,553.6l-4.54-1.63l0.1-0.18
	c1.42,0.5,3.82-0.48,6.77-3.12c0.34-0.69,0.28-1.54-0.08-2.3l1.46-2.98l1,0.37c0.83,0.3,0.86,0.72,0.52,1.42
	c-0.34,0.7-0.42,0.88-0.83,0.73c-0.41-0.14-0.78,0.14-1.13,0.84l1.82,1.68l-0.94,1.94c-0.6,1.23-1.44,1.95-2.42,2.01
	C613.14,552.48,612.53,552.85,612.02,553.6z M378.91,755.17l-1.05-2.22c-1.41,0.71-2.28,1.01-2.28,1.01L378.91,755.17z
	 M397.1,761.72c1.72-0.61,2.53-1.54,2.91-2.32c0.5-1.04,1.98-1.13,4.09-0.36l1.41-2.88c1.77-3.64,2.25-6.84,0.72-9.54l-0.62,1.31
	l-4.2,8.59l-1.52-0.54c-1.21-0.44-2.45,0.64-3.84,3.5l-0.77,1.57c-3.02-1.08-5.22-0.97-6.1,0.87l-0.77,1.56l1.84,0.66
	C390.23,764.14,392.5,763.13,397.1,761.72z M409.83,779.48l-3.34-1.21c1.61-0.33,2.15-0.76,2.15-0.76
	C409.86,777.96,410.2,778.7,409.83,779.48z M74.65,765.02c-3.11-0.95-5.45-0.5-7,1.39l0.87,0.26
	C70.42,767.25,72.4,766.69,74.65,765.02z M97.81,765.53c-0.95-1.46-1.79-3.22-2.67-5.34c-0.88-2.11-1.37-3.76-1.64-5.02
	c0.68-1.64,0.76-2.79,0.49-3.54l-1.04-0.32l0.3-0.74c0.49-1.19,0.33-1.74-0.2-1.91l-1.03-0.31l-3.31,8.04
	c1.13,1.02,2.04,2.14,2.77,3.69c0.77,1.41,1.92,2.43,3.13,2.8c-0.43,1.05-0.05,2,1.45,3.12c1.3,1.07,1.68,2.03,1.26,3.07l-0.36,0.89
	c0.93-0.38,1.58-1.02,2.08-2.21C99.47,766.71,99.03,765.9,97.81,765.53z M112.3,753.52l-1.03-0.32c-0.54-0.15-1,0.04-1.24,0.63
	C110.72,754.04,111.37,753.91,112.3,753.52z M91.16,748.07l0.67-1.63c0.43-1.04,0.67-1.64,0.67-1.64l-0.3,0.75l-0.37,0.89
	L91.16,748.07z M215.11,756.51c-1.2,1.48-2.46,3.61-3.57,6.29c-1.1,2.68-1.08,4.53-0.11,5.49c0.48-1.19,1.15-2.33,2.05-3.56
	c0.72-1.29,1.39-2.44,1.89-3.62C216.21,759.03,216.24,757.53,215.11,756.51z M232.35,756.24l-0.36,0.88
	c-0.43,1.04-0.51,1.7,0.19,1.9c0.93-0.38,1.4-0.58,1.4-0.58C234.02,757.41,233.57,756.6,232.35,756.24z M237.34,756.91l2.76,0.84
	l0.3-0.75c0.26-0.59-0.13-1.05-1.52-1.48L237.34,756.91z M954.13,73.52l-1.42,0.39l0.61,1.28l0.88,0.32L954.13,73.52z M949.6,75.63
	c-0.29,0.61-0.73,1.51-1.47,3.02c-0.66,1.37-0.61,2.1,0.1,2.35l2.43-4.99L949.6,75.63z M913.4,89.76l-0.89-0.32l-0.44,0.91
	l0.88,0.32L913.4,89.76z M935.16,100.62l-1.13-2.35c-1.21-0.44-1.96-0.19-2.56,1.03L935.16,100.62z M951.75,115.31l-0.68-3.26
	l-2.81-1.01l0.38-0.76l-4.24-0.63l-0.69-1.15l-1.25,0.44c0.12,1.46,0.57,1.81,1.5,1.6c0.82-0.41,2.02-0.33,3.24,0.11l1.06,0.38
	c-0.09,3.16,0.76,5.23,2.68,5.95l1.94,0.69C953.47,116.44,952.98,115.75,951.75,115.31z M899.27,109.89l1.69-1.34l1.93,0.69
	l2.05-2.11l0.81-1.66l1.93,0.71l-1.93-0.71c-1.44,0.01-3.61,0.65-6.36,1.62c-2.74,0.96-4.13,1.7-4.35,2.16l-0.44,0.91
	C897.56,109.99,899.27,109.89,899.27,109.89z M920.71,116.73c0,0-0.37,0.76-1.18,2.42l0.87,0.32L920.71,116.73z M902.59,128.49
	l1.93,0.7l-1.14-2.37c-0.57,1.22-1.14,1.55-1.85,1.29c-0.54-0.19-1.18,0.29-1.69,1.34l-0.44,0.91
	C900.65,130.82,901.78,130.16,902.59,128.49z M1237.16,368.5c-0.2-0.55-0.31-0.96-0.14-1.4c0.18-0.44-0.1-1.15-0.68-2.2l-0.87,0.36
	l-0.76,1.88l2.23,1.93l-0.27,0.66l-0.23,0.56L1237.16,368.5z M1158.92,342.68l0.76,0.24c0.39,0.12,0.59,0.31,0.41,0.75
	c-0.18,0.44-0.02,0.73,0.37,0.86c0.51,0.15,0.87,0.01,1.06-0.43c-0.53-0.15-0.69-0.46-0.81-0.86c-0.08-0.53-0.38-0.86-0.76-0.97
	C1159.45,342.11,1159.1,342.24,1158.92,342.68z M1200.06,351.74l-1.42-0.43c-0.51-0.16-0.6-0.31-0.4-0.75
	c0.18-0.43-0.32-0.59-1.41-0.43l-0.23,0.56l0.37,0.85l0.77,0.24C1198.64,352.05,1199.37,352.03,1200.06,351.74z M1225.5,314.8
	l-1.41-0.44l-0.77,1.88l1.42,0.44L1225.5,314.8z M1305.34,289.1l-0.77-0.23c0.36-0.89,0.88-1.1,1.64-0.86
	c0.65,0.19,1.12,0.09,1.29-0.35l0.24-0.55c-0.91-0.27-1.68-0.14-2.16,0.33c-0.53,0.6-1.14,0.65-2.03,0.38
	c-1.41-0.43-2.03-1-1.67-1.88l1.91-0.78c-0.57-1.05-0.77-1.98-0.47-2.74c0.69-0.28,1.55-1.64,2.54-4.08
	c0.82-1.98,2.02-3.86,3.87-5.52c1.71-1.72,2.92-3.59,3.78-5.69c0.12-0.32,0.48-0.47,0.99-0.31c-0.09-2.26,0.72-3.87,2.64-4.66
	c-0.4-0.11-0.25-1.18,0.58-3.16l-0.77-0.24c-0.39-0.12-0.86,0.35-1.36,1.57l-0.64-0.19l-0.27,0.66l-0.99,0.32
	c-1.18,2.87-3.14,6.24-6.24,10.26c-2.97,4.05-5.07,7.77-6.39,10.96c-0.32,0.77-0.6,1.8-0.76,2.87c-0.28,1.03-0.51,1.95-0.82,2.73
	C1300.63,287.91,1302.52,288.23,1305.34,289.1z M1310.83,287.29l-0.27,0.66c-0.32,0.77-0.37,1.25,0.15,1.41
	c0.69-0.29,1.04-0.42,1.04-0.42C1312.06,288.16,1311.74,287.58,1310.83,287.29z M1327.33,269.98c0.14-0.33-0.02-0.63-0.41-0.75
	c-1.42-0.43-2.37-0.22-2.69,0.55c1.04,0.32,1.63,0.62,2.06,1c0.33,0.22,0.8,0.5,1.32,0.65l1.28,0.39
	C1328.31,270.78,1327.85,270.14,1327.33,269.98z M1305.9,262.84c0,0,0.64,0.18,2.04,0.61c1.21-0.12,1.64-0.12,1.64-0.12
	c-0.7-0.7-1.14-1.08-1.14-1.08C1307.05,261.81,1306.21,262.06,1305.9,262.84z M1297.52,258.29l-0.87,0.37
	c-0.32,0.76-0.11,1.32,0.91,1.63l0.65,0.2l0.21-0.56C1298.79,259.05,1298.42,258.57,1297.52,258.29z M1302.25,256.27
	c-0.39-0.12-0.99-0.06-1.68,0.23c1.27,0.75,1.89,1.69,1.83,2.54c-0.18,0.81,0.79,1.61,2.58,2.15c0.33-0.77,0.13-1.7-0.79-2.97
	C1303.35,257.1,1302.76,256.42,1302.25,256.27z M1348.99,267.15l-0.72,1.77l-0.5,1.2l0.64,0.2l0.5-1.22
	C1349.36,268,1349.51,267.3,1348.99,267.15z M1349.89,257.24l-0.27,0.66l-0.72,1.77c0.69-0.29,1.08-0.54,1.26-0.97
	C1349.79,258.2,1349.71,257.69,1349.89,257.24z M1358.17,256.41l-0.51,1.22c-0.17,0.44-0.09,0.59,0.42,0.74l0.77,0.24
	C1358.99,258.28,1358.76,257.46,1358.17,256.41z M1361.08,253.2l-0.77-0.24c-0.9-0.27-1.78,0.46-2.41,2l0.77,0.25
	c0.9,0.26,1.42,0.06,1.38-0.58C1360.07,253.89,1360.39,253.49,1361.08,253.2z M1305.08,234.38l0.98,0.3
	c-0.51,0.59-0.93,1.28-1.28,2.12c0.18-0.44,0.18-0.81-0.03-0.99c-0.04-0.26-0.03-0.63,0.15-1.07
	C1304.96,234.6,1305.01,234.48,1305.08,234.38z M1301.08,237.66l0.91,0.28l0.5-1.21l0.65,0.19c0.18,0.92,0.38,1.86,0.92,2.64
	c0.37,0.86-0.12,1.7-1.52,2.63c-1.01,1.43-1.57,2.76-1.2,3.99c0.23,1.18-0.54,2.69-2.25,4.41c0.33,0.59,0.46,1,0.27,1.44
	c-0.18,0.44-0.19,0.81,0.14,1.41l-1.22,2.98l-0.49,1.21c-0.27-1.82-0.63-3.04-0.84-3.6l0.49-1.21l1.23-2.99
	c0.37-0.88,0.3-1.39-0.13-1.77c-0.29-0.34-0.47-0.63-0.28-1.07c0.32-0.78,0.86-1.72,1.52-2.64c0.49-0.87,0.47-1.38-0.3-1.69
	C1300.05,240.89,1300.59,239.21,1301.08,237.66z M1270.97,439.42l-0.49-0.84l-1.26,0.98l1.13,1.08L1270.97,439.42z M2332.37,757.72
	l-1.23-0.47c-1.44-0.54-2.9,0.39-4.26,3.05l3.5,1.32l1.54-3.01L2332.37,757.72z M2326.67,763.61l-0.55,1.06
	c-0.63,1.24-0.69,1.86,0.12,2.16l1.25,0.47l0.44-0.9C2328.57,765.17,2328.11,764.15,2326.67,763.61z M2312.88,764.11l-0.99,1.95
	l1.23,0.47C2312.94,764.99,2312.88,764.11,2312.88,764.11z M2310.46,779.5l-1.45,2.84c-0.36,0.7-0.13,1.21,0.48,1.45l1-1.95
	C2311.2,780.42,2311.27,779.81,2310.46,779.5z M2128.59,752.85l-0.89-1.88c-0.98-0.35-1.57-0.14-2.04,0.81L2128.59,752.85z
	 M2141.78,764.49l-0.55-2.59l-2.23-0.8l0.3-0.59l-3.37-0.52l-0.55-0.89l-0.98,0.34c0.08,1.16,0.44,1.43,1.18,1.27
	c0.65-0.33,1.6-0.26,2.58,0.09l0.84,0.29c-0.07,2.52,0.6,4.17,2.13,4.72l1.54,0.56C2143.14,765.42,2142.74,764.86,2141.78,764.49z
	 M2100.1,760.21l1.34-1.07l1.54,0.55l1.63-1.66l0.65-1.32l1.53,0.56l-1.53-0.56c-1.16,0.01-2.88,0.52-5.06,1.28
	c-2.18,0.77-3.28,1.36-3.47,1.72l-0.34,0.73C2098.74,760.28,2100.1,760.21,2100.1,760.21z M2117.12,765.64c0,0-0.28,0.58-0.93,1.9
	l0.69,0.27L2117.12,765.64z M2132.94,784.31l1.54,0.55c-0.25-0.51-0.4-0.84-0.4-0.84C2133.52,783.8,2133.13,783.95,2132.94,784.31z
	 M2102.75,774.97l1.53,0.56l-0.9-1.88c-0.47,0.97-0.92,1.22-1.48,1.02c-0.41-0.15-0.93,0.22-1.34,1.06l-0.34,0.73
	C2101.19,776.82,2102.1,776.3,2102.75,774.97z M2098.39,776.51c0.01,1,0.06,1.57,0.06,1.57l0.34-0.73
	C2098.96,777,2098.8,776.66,2098.39,776.51z M2097.45,778.43l-1.53-0.55l-0.64,1.32l1.54,0.55L2097.45,778.43z M2084.86,793.21
	l-1.54-0.55c-0.41-0.15-0.82-0.01-0.99,0.35c0.42,0.14,0.64,0.38,0.52,0.61c-0.12,0.24,0.1,0.46,0.67,0.66
	C2083.92,794.43,2084.44,794.05,2084.86,793.21z M2167.28,785.24l-0.34,0.67c-1.22-0.31-2.45-0.38-3.67-0.25
	c-1.75,0.21-3.25-0.05-4.66-0.56l-1.53-0.54l0.3-0.6c0.23-0.48,1.11-0.6,2.7-0.16c1.64,0.32,2.81,0.32,3.59,0.03l2.22,0.8
	C2166.47,784.83,2166.94,785.03,2167.28,785.24z M1328.52,231.28c36.41,0,69.45,14.8,93.44,38.76l0.11,0.11
	c22.53,22.57,36.96,53.13,38.6,86.97c25.05,5.57,49.81,11.93,74.24,19.04c-0.43,1.01-0.64,2.35-0.64,4.04
	c0,3.08,0.87,5.17,2.65,6.32l4.49-8.44c14.93,4.44,29.72,9.16,44.39,14.16l-0.55,0.59c3.24,1.54,4.86,4.4,4.86,8.6
	c0,8.03,1.62,12.43,4.88,13.18l4.88-6.29v-1.73c0.28-1.91,0-3.61-0.89-5.15c-0.87-1.51-2.08-3.04-3.55-4.58
	c-1-0.81-1.9-1.55-2.7-2.22c16.47,5.73,32.76,11.8,48.88,18.22c8.03,3.19,16.03,6.47,23.96,9.83c0.29,1.75,0.69,3.65,1.23,5.7
	c1.18,3.07,2,5.44,2.43,7.16c0.46,1.72,0.83,3.16,1.11,4.29l2.24-2.85l-0.47-5.17c0.14-2.31,0.11-4.44-0.06-6.37
	c45.76,19.68,89.94,42.07,132.32,66.96l8.58-20.14c0.31,0.28,0.67,0.51,1.07,0.69c1.5-0.38,2.24-1.52,2.24-3.43
	c0-1.55-0.18-2.81-0.54-3.78l73.91-173.65c-98.66-60.83-205.86-108.97-319.29-142.15c-68.19-19.94-138.74-34.5-211.18-43.19
	l0.03-0.06c1.02-2.38,2.04-4.6,3.06-6.7c1.01-2.1,1.52-3.95,1.52-5.52c0-2.65-0.81-5.03-2.44-7.1c-4.14,6.12-6.56,12.38-7.27,18.78
	c-50.38-5.84-101.66-8.85-153.69-8.85c-42.89,0-85.3,2.05-127.11,6.05l-3.39-4.69l-2.53,3.05c-0.58,0.7-0.87,1.47-0.9,2.32
	c-50.74,5.12-100.62,13.12-149.46,23.84c0.04-0.16,0.1-0.33,0.19-0.51c0.21-0.44,1.14-0.65,2.51-0.51c1.38,0.15,2.74-0.09,3.85-1.1
	c0.52-1.06,0.71-1.88,0.65-2.61c0.1-0.67,0.31-1.48,0.82-2.54l0.44-0.91c2.96-1.43,4.59-3.5,5.1-5.8l2.73-0.96l2.14-2.26
	c1.73-0.6,3.31-1.29,4.42-2.3c-0.31-0.66-0.14-1.83,0.67-3.5c0.59-1.2,1.35-2.35,2.37-3.59c0.83-1.3,1.42-2.51,1.23-3.82
	c1.53-0.16,3.84-2.34,6.49-6.54c2.84-4.13,4.51-6.72,5.03-7.78l0.44-0.9c2.44-0.36,3.98-1.41,4.79-3.07
	c0.81-1.67,0.48-2.67-0.75-3.11c-1.05,0.86-2.61,1.54-4.43,2.3l-3.17,6.5l-0.82,1.65l-2.37,0.21c-1.53,3.18-3.35,6.08-5.24,8.24
	c-1.7,2.23-3.39,4.82-4.71,7.54c-0.8,1.66-1.88,3.05-3.08,4.22c-1.36,1.11-2.8,2.36-4.14,3.83l-1.05-0.37l-2.8,5.74l-2.74,0.97
	l-2.06,2.09c0.55,0.2,0.74,0.63,0.44,1.23c-0.51,1.06-0.98,1.61-1.3,1.84c-0.5,0.18-1.05,0.87-1.55,1.93
	c-1.24-0.44-2.09-0.39-2.31,0.05c-0.3,0.61-1.3,0.97-2.74,0.97c0.41,0.87,0.28,1.54,0.06,1.98c-0.25,0.5-0.55,0.94-0.94,1.28
	c-6.01,1.33-12.01,2.7-17.99,4.11l0.43-0.87c0.21-0.46,0.01-0.88-0.52-1.07c0.01,1.1,0.06,1.8,0.07,1.95l-1.55,0.36l-1.63-0.59
	l-0.55,1.11c-17.5,4.18-34.88,8.72-52.1,13.59c-110.07,31.16-214.21,76.23-310.38,133.2l78.76,185.01c-0.25,0.25-0.5,0.49-0.76,0.73
	c-0.59,1.23-0.98,2.52-0.99,3.55c-0.11,1.2-0.42,2.32-1.02,3.54c-0.6,1.22-1.31,2.2-2.06,2.75c-0.67,0.38-1.21,1.01-1.46,1.54
	l-0.94,1.93c-1.01,0.11-1.94,0.37-2.77,0.85l-4.77,9.79l1.41-0.49l2.38-2.44l0.41-0.89c1.29-2.62,3.11-3.41,5.15-2.67
	c0,0,0.55,0.82,1.3,2.74c1.15-0.41,1.9-0.97,2.16-1.49c0.34-0.7,0.19-1.37-0.55-1.84c-0.44-0.57-0.58-1.24-0.25-1.94l0.94-1.93
	l1.02,0.37c0.82,0.29,1.64-0.44,2.59-2.36l2.23-2.29l2.74,6.41c6.18-3.47,12.4-6.89,18.66-10.26c4.83,1.5,9.96,1.09,15.18-1.31
	l2.24,0.81c1.42,0.51,3.24,0.75,5.17,0.21c1.86-0.36,3.54-0.37,5.16,0.21c0.61,0.22,0.84,0.72,0.51,1.42
	c2.1-0.89,2.91-0.59,2.22,0.81c-0.59,1.23-1.42,1.95-2.37,2.44c1.09,2.66,1.37,5.03,0.43,6.96c-1.19,2.45-3.53,5.31-6.83,8.65
	c-0.34,0.7-0.1,1.19,0.5,1.41c0.83,0.29,2.82-0.84,5.85-3.66c2.97-2.64,5.16-3.7,6.78-3.11c0.62,0.22,1.15,0.62,1.38,1.12
	c0.24,0.5,0.56,0.81,1.37,1.1l5.42-0.31c2.11-0.89,3.18-1.12,3.18-1.12l1.53-0.68l3.47,1.24c2.03,0.73,3.83,0.97,4.71,0.67
	c-0.84-1.74-1.92-2.96-3.34-3.47c-1.63-0.59-4.2-0.69-7.67-0.5l-2.22-0.81l-1.66,0.43l-3.84-2.41c-0.26,0.53-0.92,0.91-1.91,0.96
	c-0.78,0.14-0.94-0.55-0.33-1.77c-1.89-0.05-2.42-0.44-1.74-1.85c0.59-1.22,1.02-2.1,1.37-2.81c-1.64-2.03-1.39-5.03,0.91-8.73
	c2.2-3.54,3.84-6.44,4.78-8.37c1.2-2.46,1.73-4.53,1.51-6.05c-0.6-0.22-1.6,0.87-2.8,3.31l-1.47,2.98l-0.92,1.93
	c-0.94,1.93-2.45,3.03-4.29,3.39c-1.93,0.55-3.19,2.15-3.57,4.89l-4.49-1.61c-2.24-0.82-3.83-0.97-4.99-0.56
	c-1.07,0.22-3.08-0.08-5.93-1.11c-0.59-0.21-0.78-0.72-0.62-1.44c74.09-38.73,152.8-69.94,235.11-92.59
	c13.08-3.6,26.25-6.98,39.5-10.15l-0.23,1.12l3.43,1.17l0.65-3.21c71.41-16.8,145.16-27.19,220.59-30.54
	c0.73,1.6,1.66,2.75,2.8,3.49l2.2-2.86l-0.48-0.82c16.26-0.66,32.61-1,49.01-1h0.54c1.51-5.5,3.38-10.87,5.56-16.06l0.95,0.28
	c1.9-0.77,2.82-1.24,2.82-1.24l2.41,0.1l1.14-1.01l2.81,0.85c1.42,0.43,2.4,0.48,3.1,0.2l-5.64-1.72c-0.91-0.28-1.46-0.31-1.56-0.09
	c-0.08,0.22-0.52,0.21-1.54-0.11l-0.64-0.18c-0.33-0.61-0.36-1.23-0.04-2.01c0.36-0.88,0.59-1.43,0.77-1.88
	c-0.13-0.24-0.55-0.42-1.25-0.49c6.44-13.03,14.96-24.85,25.14-35.05l0.11-0.11C1259.07,246.09,1292.12,231.28,1328.52,231.28z"/>
<g>
	<path d="M383.58,923.38h-31.31v175.67h28.26v36.28h-95.09v-36.28h24.44V980.29h-1.53l-72.18,137.48h-19.09l-76-140.92h-1.53v122.21
		h25.97v36.28H71.58v-36.28h28.26V923.38H68.52V887.1h67.21l91.65,169.18h1.53l87.07-169.18h67.59V923.38z"/>
	<path d="M654.34,1135.33h-95.09v-36.28h25.2l-12.6-33.99h-92.8l-13.37,33.99h27.88v36.28h-93.95v-36.28h22.91l74.85-175.67H461.1
		V887.1h79.82l89.36,211.95h24.06V1135.33z M560.4,1034.13l-32.46-86.31h-2.29l-34.37,86.31H560.4z"/>
	<path d="M981.24,923.38h-31.31v175.67h28.26v36.28h-95.09v-36.28h24.44V980.29h-1.53l-72.18,137.48h-19.09l-76-140.92h-1.53v122.21
		h25.97v36.28h-93.95v-36.28h28.26V923.38h-31.31V887.1h67.21l91.65,169.18h1.53l87.07-169.18h67.59V923.38z"/>
	<path d="M1322.26,923.38h-31.31v175.67h28.26v36.28h-95.09v-36.28h24.44V980.29h-1.53l-72.18,137.48h-19.09l-76-140.92h-1.53
		v122.21h25.97v36.28h-93.95v-36.28h28.26V923.38h-31.31V887.1h67.21l91.65,169.18h1.53l87.07-169.18h67.59V923.38z"/>
	<path d="M1593.02,1135.33h-95.09v-36.28h25.21l-12.6-33.99h-92.8l-13.37,33.99h27.88v36.28h-93.95v-36.28h22.91l74.85-175.67
		h-36.28V887.1h79.82l89.36,211.95h24.06V1135.33z M1499.08,1034.13l-32.46-86.31h-2.29l-34.37,86.31H1499.08z"/>
	<path d="M1984.84,923.38h-31.32v175.67h28.26v36.28h-95.09v-36.28h24.44V980.29h-1.53l-72.18,137.48h-19.09l-76-140.92h-1.53
		v122.21h25.97v36.28h-93.95v-36.28h28.26V923.38h-31.32V887.1h67.21l91.65,169.18h1.53l87.07-169.18h67.59V923.38z"/>
	<path d="M2112.39,1135.33h-99.29v-36.28h28.64V923.38h-28.64V887.1h99.29v36.28h-28.26v175.67h28.26V1135.33z"/>
	<path d="M2385.82,1135.33h-95.09v-36.28h25.21l-12.6-33.99h-92.8l-13.37,33.99h27.88v36.28h-93.95v-36.28h22.91l74.85-175.67
		h-36.28V887.1h79.82l89.36,211.95h24.06V1135.33z M2291.87,1034.13l-32.46-86.31h-2.29l-34.37,86.31H2291.87z"/>
</g>
</svg>
